<svg xmlns="http://www.w3.org/2000/svg" style="display: none;"><symbol id="high-five" viewBox="0 0 512 512"><title>high-five</title><g> <g> <path d="M255.987,20c-5.522,0-10,4.477-10,10v59.493c0,5.523,4.478,10,10,10c5.522,0,10-4.477,10-10V30 C265.987,24.477,261.509,20,255.987,20z"/> </g> </g><g> <g> <path d="M199.324,105.381l-23.926-23.905c-3.909-3.904-10.239-3.901-14.143,0.006c-3.903,3.907-3.9,10.238,0.006,14.142 l23.927,23.905c1.953,1.951,4.511,2.926,7.068,2.926c2.561,0,5.121-0.978,7.074-2.932 C203.233,115.616,203.23,109.285,199.324,105.381z"/> </g> </g><g> <g> <path d="M350.738,81.5c-3.907-3.905-10.239-3.901-14.143,0.005l-25.437,25.457c-3.903,3.907-3.9,10.238,0.006,14.142 c1.953,1.952,4.512,2.927,7.069,2.927c2.561,0,5.121-0.978,7.074-2.932l25.437-25.457C354.647,91.735,354.644,85.404,350.738,81.5 z"/> </g> </g><g> <g> <path d="M446.5,284h-8.07c6.586-8.585,10.513-19.312,10.513-30.943v-14.113C448.943,210.853,426.09,188,398,188 c-28.09,0-50.943,22.853-50.943,50.943v10.971l-75.231-75.232c-4.175-4.174-10.315-5.514-15.825-3.524 c-5.508-1.99-11.65-0.65-15.826,3.525l-75.23,75.231v-10.971C164.943,210.853,142.09,188,114,188 c-28.09,0-50.943,22.853-50.943,50.943v14.113c0,11.632,3.927,22.358,10.513,30.943H65.5C29.383,284,0,313.383,0,349.5V482 c0,5.523,4.478,10,10,10h42.25c1,0,1.964-0.151,2.875-0.424C56.036,491.849,57,492,58,492h112c5.522,0,10-4.477,10-10v-34 c0-5.523-4.478-10-10-10c-5.522,0-10,4.477-10,10v24H68V358.053c0-5.523-4.478-10-10-10s-10,4.477-10,10V472H20V349.5 c0-25.089,20.411-45.5,45.5-45.5H135c2.752,0,5.244-1.113,7.052-2.911c0.007-0.007,0.013-0.011,0.02-0.017l103.869-103.87 c-0.681,20.768-7.141,40.771-18.787,58.068l-65.448,97.198c-1.111,1.651-1.705,3.596-1.705,5.585V369c0,5.523,4.478,10,10,10 c5.522,0,10-4.477,10-10v-7.895l63.743-94.666c4.87-7.233,8.954-14.875,12.257-22.808c3.303,7.933,7.386,15.575,12.257,22.808 L332,361.105V482c0,5.523,4.478,10,10,10h112c1,0,1.964-0.151,2.875-0.424c0.911,0.273,1.875,0.424,2.875,0.424H502 c5.522,0,10-4.477,10-10V349.5C512,313.383,482.617,284,446.5,284z M144.943,253.056c0,17.063-13.88,30.944-30.943,30.944 s-30.943-13.881-30.943-30.943v-14.113C83.057,221.881,96.938,208,114,208s30.943,13.881,30.943,30.943V253.056z M367.057,238.943 C367.057,221.881,380.938,208,398,208s30.943,13.881,30.943,30.943v14.113c0,17.063-13.88,30.944-30.943,30.944 s-30.943-13.881-30.943-30.943V238.943z M492,472L492,472h-28v-74c0-5.523-4.478-10-10-10c-5.522,0-10,4.477-10,10v74h-92V358.053 c0-1.99-0.594-3.935-1.705-5.585l-65.448-97.197c-11.646-17.297-18.106-37.3-18.787-58.068l103.869,103.869 c0.132,0.132,0.256,0.243,0.376,0.342c1.773,1.603,4.117,2.588,6.695,2.588h69.5c25.089,0,45.5,20.411,45.5,45.5V472z"/> </g> </g><g> <g> <path d="M461.069,350.98c-1.859-1.86-4.439-2.93-7.069-2.93s-5.21,1.07-7.07,2.93c-1.86,1.86-2.93,4.44-2.93,7.07 s1.069,5.21,2.93,7.07c1.86,1.86,4.44,2.93,7.07,2.93s5.21-1.07,7.069-2.93c1.86-1.86,2.931-4.44,2.931-7.07 S462.93,352.85,461.069,350.98z"/> </g> </g><g> <g> <path d="M177.069,403.93C175.21,402.07,172.63,401,170,401s-5.21,1.07-7.07,2.93S160,408.37,160,411s1.069,5.21,2.93,7.07 c1.861,1.86,4.44,2.93,7.07,2.93s5.21-1.07,7.069-2.93c1.86-1.86,2.931-4.44,2.931-7.07S178.93,405.79,177.069,403.93z"/> </g> </g></symbol><symbol id="testimonial" viewBox="0 0 512 512"><title>testimonial</title><g> <g> <path d="M123.856,71.638H105.66c2.737-20.263,13.941-21.281,19.097-21.75c5.151-0.469,9.094-4.787,9.094-9.959V10.004 c0-2.749-1.132-5.378-3.13-7.267s-4.688-2.868-7.431-2.717C91.68,1.798,54,17.758,54,83.696v52.04 c0,8.687,7.067,15.754,15.754,15.754h54.103c8.687,0,15.754-7.068,15.753-15.755V87.392 C139.61,78.705,132.543,71.638,123.856,71.638z M119.611,131.489H74V83.696c0-46.01,20.461-58.86,39.851-62.487v10.514 c-13.391,4.076-28.803,16.114-28.803,49.915c0,5.523,4.477,10,10,10h24.563V131.489z"/> </g> </g><g> <g> <path d="M226.091,71.638h-18.197c2.737-20.263,13.941-21.281,19.097-21.75c5.151-0.469,9.094-4.787,9.094-9.959V10.004 c0-2.749-1.132-5.378-3.13-7.267s-4.69-2.868-7.431-2.717c-31.61,1.778-69.29,17.738-69.29,83.676v52.04 c0,8.687,7.067,15.754,15.754,15.754h54.103c8.687,0,15.755-7.068,15.754-15.756V87.392 C241.845,78.705,234.778,71.638,226.091,71.638z M221.845,131.49h-45.611V83.696c0-46.01,20.461-58.86,39.851-62.487v10.514 c-13.391,4.076-28.803,16.114-28.803,49.915c0,5.523,4.477,10,10,10h24.563V131.49z"/> </g> </g><g> <g> <path d="M285.07,80.795c-1.86-1.86-4.44-2.93-7.07-2.93s-5.21,1.07-7.07,2.93s-2.93,4.44-2.93,7.07s1.07,5.21,2.93,7.07 c1.86,1.86,4.44,2.93,7.07,2.93s5.21-1.07,7.07-2.93s2.93-4.44,2.93-7.07S286.93,82.655,285.07,80.795z"/> </g> </g><g> <g> <path d="M334.267,77.864h-12.601c-5.523,0-10,4.477-10,10s4.477,10,10,10h12.601C421.241,97.864,492,168.623,492,255.597 c0,74.232-52.648,139.152-125.187,154.365c-4.631,0.972-7.947,5.056-7.947,9.787v58.104l-61.594-61.594 c-1.875-1.875-4.419-2.929-7.071-2.929H177.733C90.759,413.33,20,342.571,20,255.597c0-26.805,6.843-53.274,19.79-76.548 c2.686-4.826,0.949-10.915-3.877-13.6c-4.827-2.686-10.916-0.949-13.6,3.877C7.715,195.565,0,225.397,0,255.597 C0,353.6,79.73,433.33,177.733,433.33h108.326l75.736,75.736c1.913,1.913,4.47,2.929,7.073,2.929c1.288,0,2.588-0.249,3.825-0.762 c3.736-1.547,6.173-5.193,6.173-9.238v-74.321c36.183-9.376,68.9-30.239,92.807-59.343C497.678,336.674,512,296.638,512,255.597 C512,157.595,432.27,77.865,334.267,77.864z"/> </g> </g><g> <g> <path d="M379.064,177.492H132.937c-5.523,0-10,4.477-10,10s4.477,10,10,10h246.126c5.523,0,10.001-4.477,10.001-10 S384.587,177.492,379.064,177.492z"/> </g> </g><g> <g> <path d="M379.064,230.825H132.937c-5.523,0-10,4.477-10,10c0,5.523,4.477,10,10,10h246.126c5.523,0,10.001-4.477,10.001-10 C389.064,235.302,384.587,230.825,379.064,230.825z"/> </g> </g><g> <g> <path d="M379.064,284.158H132.937c-5.523,0-10,4.478-10,10c0,5.522,4.477,10,10,10h246.126c5.523,0,10.001-4.478,10.001-10 C389.064,288.636,384.587,284.158,379.064,284.158z"/> </g> </g><g> <g> <path d="M379.063,337.492H247.871c-5.523,0-10,4.478-10,10c0,5.522,4.477,10,10,10h131.192c5.523,0,10-4.478,10-10 C389.063,341.97,384.586,337.492,379.063,337.492z"/> </g> </g><g> <g> <path d="M191.607,337.491h-0.161c-5.523,0-10,4.478-10,10c0,5.522,4.477,10,10,10h0.161c5.523,0,10-4.478,10-10 C201.607,341.969,197.13,337.491,191.607,337.491z"/> </g> </g></symbol><symbol id="briefcase" viewBox="0 0 512 512.00058"><title>briefcase</title><path d="m216 266c5.519531 0 10-4.480469 10-10s-4.480469-10-10-10-10 4.480469-10 10 4.480469 10 10 10zm0 0"/><path d="m50 286c5.519531 0 10-4.480469 10-10s-4.480469-10-10-10-10 4.480469-10 10 4.480469 10 10 10zm0 0"/><path d="m432 226.558594v-61.5625c0-.019532 0-.042969 0-.066406v-74.929688c0-16.542969-13.457031-30-30-30h-96v-30c0-16.542969-13.457031-30-30-30h-120c-16.542969 0-30 13.457031-30 30v30h-96c-16.542969 0-30 13.457031-30 30v74.929688.066406 191.003906c0 27.570312 22.429688 50 50 50h312v96c0 3.84375 2.203125 7.347656 5.667969 9.011719 3.464843 1.667969 7.578125 1.199219 10.578125-1.203125l43.753906-35 43.753906 35c2.996094 2.398437 7.105469 2.875 10.578125 1.203125 3.464844-1.664063 5.667969-5.167969 5.667969-9.011719v-118.921875c19.125-17.085937 30-41.261719 30-67.078125 0-46.246094-35.0625-84.449219-80-89.441406zm-286-196.558594c0-5.515625 4.484375-10 10-10h120c5.515625 0 10 4.484375 10 10v30h-140zm-116 50h372c5.515625 0 10 4.484375 10 10v68.554688l-155.480469 68.167968c-9.292969-12.824218-24.328125-20.722656-40.519531-20.722656s-31.226562 7.898438-40.519531 20.722656l-155.480469-68.167968v-68.554688c0-5.515625 4.484375-10 10-10zm158.679688 163.585938c4.867187-10.683594 15.589843-17.585938 27.320312-17.585938s22.453125 6.902344 27.320312 17.585938c1.777344 3.90625 2.679688 8.082031 2.679688 12.414062 0 16.542969-13.457031 30-30 30s-30-13.457031-30-30c0-4.332031.902344-8.511719 2.679688-12.414062zm-138.679688 142.414062c-16.542969 0-30-13.457031-30-30v-175.605469l147.234375 64.550781c-.8125 3.601563-1.234375 7.292969-1.234375 11.054688 0 27.570312 22.429688 50 50 50s50-22.429688 50-50c0-3.761719-.417969-7.453125-1.234375-11.054688l147.234375-64.550781v46.164063c-44.9375 4.992187-80 43.195312-80 89.441406 0 25.816406 10.875 49.992188 30 67.078125v2.921875zm378.246094 68.191406c-3.652344-2.921875-8.839844-2.921875-12.492188 0l-33.753906 27v-84.585937c12.359375 6.121093 26.082031 9.394531 40 9.394531 13.921875 0 27.640625-3.273438 40-9.394531v84.585937zm-6.246094-68.191406c-38.601562 0-70-31.234375-70-70 0-38.597656 31.402344-70 70-70s70 31.402344 70 70c0 38.757812-31.394531 70-70 70zm0 0"/><path d="m422 266c-27.570312 0-50 22.429688-50 50s22.429688 50 50 50 50-22.429688 50-50-22.429688-50-50-50zm0 80c-16.542969 0-30-13.457031-30-30s13.457031-30 30-30 30 13.457031 30 30-13.457031 30-30 30zm0 0"/><path d="m90 346h-30v-30c0-5.523438-4.476562-10-10-10s-10 4.476562-10 10v40c0 5.523438 4.476562 10 10 10h40c5.523438 0 10-4.476562 10-10s-4.476562-10-10-10zm0 0"/></symbol><symbol id="apartment" viewBox="0 -32 512.00021 512"><title>apartment</title><path d="m79.324219 254.808594h39.910156c5.394531 0 9.769531-4.371094 9.769531-9.757813v-38.105469c0-5.390624-4.375-9.757812-9.769531-9.757812h-39.910156c-5.390625 0-9.765625 4.367188-9.765625 9.757812v38.105469c0 5.386719 4.371094 9.757813 9.765625 9.757813zm9.769531-38.105469h20.375v18.589844h-20.375zm0 0"/><path d="m79.324219 331.761719h39.910156c5.394531 0 9.769531-4.367188 9.769531-9.757813v-38.101562c0-5.390625-4.375-9.757813-9.769531-9.757813h-39.910156c-5.390625 0-9.765625 4.367188-9.765625 9.757813v38.101562c0 5.390625 4.371094 9.757813 9.765625 9.757813zm9.769531-38.105469h20.375v18.589844h-20.375zm0 0"/><path d="m223.644531 164.191406h41.957031c5.390626 0 9.765626-4.371094 9.765626-9.757812v-40.066406c0-5.390626-4.375-9.757813-9.765626-9.757813h-41.957031c-5.394531 0-9.765625 4.367187-9.765625 9.757813v40.066406c-.003906 5.386718 4.371094 9.757812 9.765625 9.757812zm9.765625-40.066406h22.421875v20.550781h-22.421875zm0 0"/><path d="m310.488281 164.191406h41.984375c5.394532 0 9.765625-4.371094 9.765625-9.757812v-40.066406c0-5.390626-4.371093-9.757813-9.765625-9.757813h-41.984375c-5.394531 0-9.765625 4.367187-9.765625 9.757813v40.066406c0 5.386718 4.371094 9.757812 9.765625 9.757812zm9.765625-40.066406h22.449219v20.550781h-22.449219zm0 0"/><path d="m266.648438 189.222656h-41.953126c-5.394531 0-9.769531 4.371094-9.769531 9.757813v40.070312c0 5.386719 4.375 9.757813 9.769531 9.757813h41.953126c5.394531 0 9.769531-4.371094 9.769531-9.757813v-40.070312c0-5.386719-4.371094-9.757813-9.769531-9.757813zm-9.765626 40.070313h-22.421874v-20.554688h22.421874zm0 0"/><path d="m353.496094 189.222656h-41.957032c-5.394531 0-9.765624 4.371094-9.765624 9.757813v40.070312c0 5.386719 4.371093 9.757813 9.765624 9.757813h41.957032c5.394531 0 9.765625-4.371094 9.765625-9.757813v-40.070312c0-5.386719-4.371094-9.757813-9.765625-9.757813zm-9.769532 40.070313h-22.421874v-20.554688h22.421874zm0 0"/><path d="m505.9375 278.273438c-6.691406-22.957032-18.722656-47.109376-32.1875-64.609376-8.546875-11.113281-19.085938-22.476562-32.472656-22.480468-.003906 0-.007813 0-.007813 0-11.34375 0-20.5 7.898437-28.609375 17.550781v-151.835937l2.898438.003906c15.679687 0 28.4375-12.765625 28.4375-28.453125s-12.757813-28.449219-28.4375-28.449219h-256.605469c-15.679687 0-28.4375 12.761719-28.4375 28.449219s12.757813 28.453125 28.4375 28.453125h2.898437v43.667968h-132.585937c-16.136719 0-29.265625 13.121094-29.265625 29.25 0 13.449219 9.128906 24.800782 21.519531 28.207032v269.972656h-4.367187c-5.394532 0-9.765625 4.367188-9.765625 9.757812 0 5.386719 4.371093 9.757813 9.765625 9.757813h435.050781c5.394531 0 9.769531-4.371094 9.769531-9.757813 0-5.210937-4.089844-9.457031-9.238281-9.730468v-47.007813c31.484375-2.679687 45.875-18.296875 52.429687-31.59375 11.175782-22.660156 6.589844-51.199219.773438-71.152343zm-476.671875-158.1875h132.585937v19.472656h-132.585937c-5.367187 0-9.730469-4.367188-9.730469-9.734375 0-5.371094 4.363282-9.738281 9.730469-9.738281zm132.585937 307.914062h-120.800781v-268.925781h120.800781zm112.566407 0h-34.398438v-102.265625h34.398438zm53.933593 0h-34.398437v-102.265625h34.398437zm64.773438 0h-45.238281v-112.023438c0-5.386718-4.375-9.757812-9.769531-9.757812h-107.863282c-5.394531 0-9.769531 4.371094-9.769531 9.757812v112.023438h-39.097656v-371.097656h66.953125c5.394531 0 9.769531-4.371094 9.769531-9.757813 0-5.390625-4.375-9.757812-9.769531-9.757812h-89.386719c-4.824219 0-8.902344-4.09375-8.902344-8.9375 0-4.925781 3.992188-8.933594 8.902344-8.933594h256.605469c4.910156 0 8.902344 4.007813 8.902344 8.933594 0 4.84375-4.078126 8.9375-8.898438 8.9375l-89.417969-.027344s0 0-.003906 0c-5.390625 0-9.765625 4.367187-9.765625 9.753906-.003906 5.390625 4.367188 9.757813 9.761719 9.761719l66.988281.019531v181.292969c-11.730469 22.296875-19.246094 47.023438-20.691406 68.210938-1.785156 26.195312 5.355468 46.679687 20.691406 59.621093zm40.074219 0h-20.539063v-52.8125c4.871094 2.878906 11.40625 4.960938 20.539063 5.8125zm54.445312-87.199219c-5.867187 11.890625-17.601562 18.789063-34.910156 20.605469v-40.886719l14.445313-13.734375c3.910156-3.714844 4.0625-9.890625.34375-13.796875-3.71875-3.902343-9.902344-4.054687-13.808594-.339843l-.980469.929687v-31.191406c0-5.386719-4.371094-9.757813-9.765625-9.757813s-9.765625 4.371094-9.765625 9.757813v17.675781l-.945313-.902344c-3.90625-3.71875-10.089843-3.570312-13.808593.332032-3.722657 3.898437-3.574219 10.074218.328125 13.792968l14.425781 13.738282v12.753906l-7.882813-5.609375c-4.394531-3.125-10.492187-2.101563-13.621093 2.285156-3.128907 4.390625-2.105469 10.484375 2.289062 13.609375l19.214844 13.671875v17.667969c-17.921875-1.878906-30.140625-9.152344-36.347656-21.738282-12.007813-24.347656-1.800781-63.019531 13.324219-91.945312.078124-.152344.15625-.300781.234374-.449219 4.214844-8.003906 8.800782-15.25 13.386719-21.214843 9.769531-12.691407 14.894531-15.355469 17.46875-15.355469h.003907c2.542968 0 7.554687 2.578125 16.992187 14.855469 22.023437 28.628906 44.484375 84.605468 29.378906 115.246093zm0 0"/><path d="m287.449219 37.386719h-.195313c-5.394531 0-9.765625 4.367187-9.765625 9.757812 0 5.386719 4.371094 9.757813 9.765625 9.757813h.195313c5.394531 0 9.765625-4.371094 9.765625-9.757813 0-5.390625-4.371094-9.757812-9.765625-9.757812zm0 0"/></symbol><symbol id="sos" viewBox="0 0 64 64"><title>sos</title><path d="m24 18c.551 0 1 .448 1 1h2c0-1.654-1.346-3-3-3s-3 1.346-3 3 1.346 3 3 3c.551 0 1 .448 1 1s-.449 1-1 1-1-.448-1-1h-2c0 1.654 1.346 3 3 3s3-1.346 3-3-1.346-3-3-3c-.551 0-1-.448-1-1s.449-1 1-1z"/><path d="m40 24c-.551 0-1-.448-1-1h-2c0 1.654 1.346 3 3 3s3-1.346 3-3-1.346-3-3-3c-.551 0-1-.448-1-1s.449-1 1-1 1 .448 1 1h2c0-1.654-1.346-3-3-3s-3 1.346-3 3 1.346 3 3 3c.551 0 1 .448 1 1s-.449 1-1 1z"/><path d="m35 23v-4c0-1.654-1.346-3-3-3s-3 1.346-3 3v4c0 1.654 1.346 3 3 3s3-1.346 3-3zm-4 0v-4c0-.552.449-1 1-1s1 .448 1 1v4c0 .552-.449 1-1 1s-1-.448-1-1z"/><path d="m47 21c0-8.271-6.729-15-15-15s-15 6.729-15 15 6.729 15 15 15 15-6.729 15-15zm-28 0c0-7.168 5.832-13 13-13s13 5.832 13 13-5.832 13-13 13-13-5.832-13-13z"/><path d="m5 56h2v2h-2z"/><path d="m5 52h2v2h-2z"/><path d="m5 48h2v2h-2z"/><path d="m57 44h2v2h-2z"/><path d="m57 48h2v2h-2z"/><path d="m57 52h2v2h-2z"/><path d="m49.029 36.962-5.012 1.253 3.528-4.358c2.873-3.548 4.455-8.018 4.455-12.584v-.273c0-11.028-8.972-20-20-20s-20 8.972-20 20v.273c0 4.565 1.582 9.035 4.455 12.584l3.528 4.357-5.009-1.253-13.974 4.301v22.092l14.036-4.318 16.964 3.991 16.966-3.992 14.034 4.319v-22.092zm-35.029-15.689v-.273c0-9.925 8.075-18 18-18s18 8.075 18 18v.273c0 4.109-1.424 8.132-4.01 11.326l-11.509 14.217c-.609.752-1.513 1.184-2.481 1.184s-1.872-.432-2.481-1.184l-11.509-14.216c-2.586-3.195-4.01-7.217-4.01-11.327zm13.964 26.801c.991 1.224 2.462 1.926 4.036 1.926s3.045-.702 4.036-1.926l1.995-2.464c3.907.828 5.969 2.301 5.969 3.39 0 1.67-4.565 4-12 4s-12-2.33-12-4c0-1.089 2.062-2.562 5.969-3.39zm-24.964-5.336 11-3.384v17.908l-11 3.384zm13 14.47v-17.927l6.075 1.518 2.489 3.075c-4.14 1.055-6.564 2.918-6.564 5.126 0 3.897 7.213 6 14 6s14-2.103 14-6c0-2.208-2.424-4.071-6.564-5.126l2.489-3.074 6.075-1.519v17.927l-16 3.764zm45 3.438-11-3.384v-17.908l11 3.384z"/></symbol><symbol id="steering-wheel" viewBox="0 0 512.005 512.005"><title>steering-wheel</title><path id="XMLID_521_" d="M288.336,214.002c0-17.829-14.505-32.333-32.333-32.333s-32.333,14.505-32.333,32.333 s14.505,32.333,32.333,32.333S288.336,231.83,288.336,214.002z M243.669,214.002c0-6.801,5.533-12.333,12.333-12.333 s12.333,5.533,12.333,12.333s-5.533,12.333-12.333,12.333S243.669,220.802,243.669,214.002z"/><path id="XMLID_524_" d="M511.227,360.431l-16.436-39.251l8.935-13.615c7.392-11.264,9.577-25.173,5.995-38.161l-8.306-30.114 c-3.641-13.201-11.97-24.579-23.453-32.038c-1.851-1.203-4.037-1.74-6.212-1.573c-4.701-98.475-76.284-182.353-173.683-201.583 c-5.415-1.071-10.678,2.456-11.748,7.874c-1.07,5.418,2.455,10.678,7.874,11.748c91.441,18.054,157.81,98.921,157.81,192.284 c0,2.766-0.08,5.548-0.195,8.32l-20.879,11.153c0.71-6.453,1.074-12.969,1.074-19.473c0-10.857-0.995-21.485-2.886-31.804 c-0.041-0.283-0.096-0.561-0.161-0.838c-15.349-81.504-87.057-143.358-172.953-143.358c-85.932,0-157.665,61.907-172.973,143.462 c-0.052,0.233-0.1,0.466-0.135,0.703c-1.895,10.329-2.892,20.967-2.892,31.835c0,6.507,0.365,13.019,1.075,19.473l-20.89-11.158 c-0.115-2.761-0.185-5.547-0.185-8.315c0-93.483,66.47-174.37,158.051-192.331c5.419-1.063,8.951-6.318,7.888-11.738 c-1.063-5.418-6.311-8.951-11.738-7.888C116.653,23.177,44.958,107.079,40.255,205.68c-2.175-0.167-4.36,0.37-6.211,1.573 c-11.483,7.459-19.812,18.837-23.453,32.038l-8.306,30.114c-3.583,12.988-1.397,26.897,5.995,38.161l8.935,13.615L0.778,360.431 c-2.133,5.094,0.268,10.953,5.362,13.086c1.262,0.529,2.57,0.779,3.858,0.779c3.91,0,7.624-2.309,9.229-6.141l15.294-36.525 l43.494,9.175L40.273,499.69c-1.276,5.374,2.045,10.765,7.418,12.041c0.777,0.185,1.554,0.272,2.319,0.272 c4.526,0,8.629-3.095,9.721-7.69l34.497-145.222c40.772,46.018,99.655,72.91,161.774,72.91c34.396,0,68.624-8.287,98.983-23.966 c23.66-12.219,45.076-28.951,62.793-48.935l34.494,145.212c1.092,4.596,5.194,7.69,9.721,7.69c0.765,0,1.542-0.088,2.319-0.272 c5.374-1.276,8.695-6.667,7.418-12.041L433.99,340.806l43.494-9.175l15.294,36.525c1.605,3.833,5.318,6.141,9.229,6.141 c1.287,0,2.596-0.251,3.858-0.779C510.959,371.384,513.359,365.525,511.227,360.431z M468.725,237.96 c1.532-0.819,2.825-2.022,3.751-3.493l2.315-3.677c3.406,3.978,5.927,8.684,7.343,13.819l8.306,30.115 c2.053,7.443,0.801,15.415-3.435,21.87l-9.589,14.612l-52.199,11.012l-9.244-9.502c-6.987-7.183-10.835-16.656-10.835-26.677 V261.92c0-2.963,2.004-5.55,4.874-6.29l2.354-0.608c7.094,4.132,16.058,4.465,23.513,0.482L468.725,237.96z M125.676,254.129 h59.39c18.161,0,32.937,14.775,32.937,32.937v80.29c-37.935-9.432-71.137-32.874-93.004-66.654 c1.225-4.736,1.869-9.652,1.869-14.662V261.92C126.867,259.221,126.439,256.607,125.676,254.129z M185.066,234.129h-84.019 c-0.693-6.002-1.045-12.067-1.045-18.127c0-7.541,0.549-14.955,1.588-22.213l101.538-24.499c34.59-8.345,71.158-8.345,105.748,0 l101.538,24.498c1.039,7.258,1.589,14.673,1.589,22.214c0,6.059-0.358,12.126-1.051,18.127h-84.012 c-29.189,0-52.937,23.747-52.937,52.937v83.896c-5.928,0.677-11.932,1.04-18,1.04s-12.072-0.363-18-1.04v-83.896 C238.003,257.876,214.255,234.129,185.066,234.129z M294.003,287.065c0-18.161,14.775-32.937,32.937-32.937h59.39 c-0.763,2.479-1.191,5.092-1.191,7.791v24.119c0,5.01,0.644,9.926,1.869,14.662c-21.867,33.781-55.069,57.222-93.005,66.654 V287.065z M256.003,60.002c70.771,0,130.677,47.375,149.694,112.074l-92.13-22.229c-37.659-9.085-77.472-9.085-115.128,0 l-92.13,22.229C125.326,107.377,185.231,60.002,256.003,60.002z M21.565,274.723l8.306-30.115 c1.417-5.135,3.937-9.841,7.343-13.819l2.315,3.677c0.926,1.47,2.219,2.674,3.751,3.493l32.846,17.544 c7.455,3.982,16.419,3.65,23.513-0.482l2.355,0.608c2.87,0.74,4.874,3.327,4.874,6.29v24.119c0,10.021-3.848,19.494-10.835,26.677 l-9.244,9.502l-52.199-11.012L25,296.593C20.764,290.138,19.512,282.167,21.565,274.723z M256.003,412.002 c-60.6,0-117.808-28.207-154.851-75.866l9.216-9.474c1.66-1.707,3.19-3.508,4.614-5.374c14.59,19.497,33.151,35.914,54.362,47.935 c26.296,14.903,56.262,22.78,86.66,22.78c30.402,0,60.373-7.88,86.672-22.787c21.206-12.021,39.762-28.435,54.349-47.928 c1.424,1.867,2.953,3.668,4.614,5.375l9.224,9.482C373.86,383.729,316.348,412.002,256.003,412.002z"/><path id="XMLID_531_" d="M256.003,20.002h0.245c5.523,0,10-4.477,10-10s-4.477-10-10-10h-0.245c-5.523,0-10,4.477-10,10 S250.48,20.002,256.003,20.002z"/></symbol><symbol id="project" viewBox="0 0 480.001 480.001"><title>project</title><path d="M472,0H112c-4.418,0-8,3.582-8,8v120h16V16h344v440c0.077,4.207-3.169,7.731-7.368,8c-0.688,0-1.376-0.056-2.064-0.072 c-1.416-0.04-2.832-0.072-4.224-0.216c-0.12,0-0.232,0-0.352-0.048c-26.128-2.856-46.767-23.475-49.648-49.6 c0-0.112-0.04-0.232-0.056-0.344c-0.194-1.901-0.29-3.81-0.288-5.72v-16c0-4.418-3.582-8-8-8H120V240h-16v144H40 c-4.418,0-8,3.582-8,8v16c0.044,39.746,32.254,71.956,72,72h352.8c12.982-0.34,23.3-11.014,23.2-24V8C480,3.582,476.418,0,472,0z M104,464c-30.913-0.035-55.965-25.087-56-56v-8h336v8c0.011,2.638,0.163,5.274,0.456,7.896c0.072,0.696,0.208,1.368,0.304,2.056 c0.264,1.936,0.584,3.864,1.008,5.76c0.144,0.664,0.328,1.32,0.496,1.984c0.488,1.928,1.04,3.824,1.68,5.696 c0.184,0.536,0.376,1.064,0.576,1.6c0.728,1.984,1.552,3.92,2.456,5.832c0.192,0.392,0.368,0.8,0.56,1.16 c1.003,2.027,2.104,3.997,3.304,5.912c0.16,0.256,0.304,0.52,0.464,0.8c1.304,2.043,2.712,4.019,4.216,5.92l0.256,0.344 c1.746,2.193,3.616,4.284,5.6,6.264c1.723,1.707,3.509,3.307,5.36,4.8L104,464z"/><path d="M264,224c2.122,0,4.156-0.844,5.656-2.344l32-32c3.123-3.124,3.123-8.188,0-11.312l-32-32 c-1.5-1.5-3.534-2.344-5.656-2.344H40c-22.091,0-40,17.909-40,40s17.909,40,40,40H264z M261.936,161.248L284.688,184 l-22.752,22.752L256.248,184L261.936,161.248z M64,160h181.76l-4,16H80v16h161.76l4,16H64V160z M16,184c0-13.255,10.745-24,24-24 h8v48h-8C26.745,208,16,197.255,16,184z"/><path d="M184,344h240c4.418,0,8-3.582,8-8V96c-0.001-4.418-3.583-7.999-8.002-7.998c-2.121,0-4.154,0.843-5.654,2.342l-240,240 c-3.124,3.125-3.123,8.19,0.002,11.314C179.846,343.157,181.879,344,184,344z M416,115.312V136h-16v16h16v16h-16v16h16v16h-16v16 h16v16h-16v16h16v16h-16v16h16v16h-16v16h16v16h-16v-16h-16v16h-16v-16h-16v16h-16v-16h-16v16h-16v-16h-16v16h-16v-16h-16v16h-16 v-16h-16v16h-20.688L416,115.312z"/><path d="M299.88,296H376c4.418,0,8-3.582,8-8v-76.12c-0.001-4.418-3.583-7.999-8.002-7.998c-2.121,0-4.154,0.843-5.654,2.342 l-76.12,76.12c-3.124,3.125-3.123,8.19,0.002,11.314C295.726,295.157,297.759,296,299.88,296z M368,231.2V280h-48.8L368,231.2z"/><rect x="208" y="48" width="160" height="16"/><rect x="184" y="80" width="208" height="16"/><rect x="136" y="248" width="48" height="16"/><rect x="136" y="280" width="32" height="16"/></symbol><symbol id="engineer" viewBox="0 0 503.607 503.607"><title>engineer</title><g transform="translate(1 1)"> <g> <path d="M477.426,416.993c-50.095-26.565-88.52-41.461-122.727-47.172l3.54-4.867c1.679-1.679,2.518-4.197,1.679-6.715 l-7.866-31.463c20.804-29.41,33.046-66.178,33.046-101.153v-33.574h8.393h16.787c5.036,0,8.393-3.357,8.393-8.393 s-3.357-8.393-8.393-8.393h-8.393v-8.393c0-66.308-43.646-122.544-109.115-141.01V24.18c0-13.43-10.911-25.18-25.18-25.18h-33.574 c-13.43,0-25.18,10.911-25.18,25.18v1.679c-65.469,18.466-109.115,74.702-109.115,141.01v8.393h-8.393 c-5.036,0-8.393,3.357-8.393,8.393s3.357,8.393,8.393,8.393h16.787h8.393v33.574c0,34.975,12.242,71.743,33.046,101.154 l-7.866,31.463c0,1.679,0,5.036,1.679,6.715l3.54,4.867c-34.206,5.712-72.632,20.607-122.727,47.172 C8.233,424.548-1,440.495-1,458.121v36.092c0,5.036,3.357,8.393,8.393,8.393h201.443h3.357h77.22h3.357h201.443 c5.036,0,8.393-3.357,8.393-8.393v-36.092C502.607,441.334,492.534,425.387,477.426,416.993z M245.77,409.224l5.081-11.432 l12.545,27.6l8.205,18.46h-40.941L245.77,409.224z M224.28,460.639h52.983l4.796,25.18h-62.815L224.28,460.639z M338.934,343.131 l3.357,15.108l-8.574,11.773c-0.547,0.447-1.053,0.989-1.498,1.656l-34.912,48.34l-11.078,15.211l-22.628-50.913 c27.048-3.299,51.193-16.877,70.694-36.39c0.216-0.214,0.433-0.426,0.648-0.642c0.052-0.053,0.104-0.106,0.156-0.159 C336.392,345.818,337.671,344.492,338.934,343.131z M327.999,60.389c0.932,0.62,1.856,1.25,2.77,1.892 c10.699,7.973,20.575,17.313,28.31,27.368l-38.61,7.554L327.999,60.389z M181.138,97.203l-38.61-7.554 c7.735-10.056,17.612-19.396,28.311-27.369c0.913-0.641,1.837-1.271,2.769-1.891L181.138,97.203z M116.508,166.869 c0-22.335,5.623-43.406,15.8-61.82l58.063,11.46c0.839,0,0.839,0,1.679,0c2.518,0,4.197-0.839,6.715-1.679 c2.518-1.679,3.357-5.036,2.518-7.554l-11.523-56.08c6.069-2.92,12.438-5.428,19.077-7.49v22.442c0,5.036,3.357,8.393,8.393,8.393 s8.393-3.357,8.393-8.393V32.574V24.18c0-4.197,3.357-8.393,8.393-8.393h33.574c4.197,0,8.393,3.357,8.393,8.393v8.393v33.574 c0,5.036,3.357,8.393,8.393,8.393c5.036,0,8.393-3.357,8.393-8.393V43.706c6.86,2.13,13.435,4.734,19.685,7.779l-11.291,54.952 c0,2.518,0.839,5.875,2.518,7.554s3.357,2.518,5.875,2.518c0.839,0,0.839,0,1.679,0l57.687-12.145 c10.416,18.576,16.175,39.894,16.175,62.505v8.393h-8.393H124.902h-8.393V166.869z M133.295,192.049h235.016v33.574 c0,36.599-12.555,69.122-31.405,93.843l-0.49,0.163c-0.839,0.839-1.679,1.679-2.518,2.518c-4.223,5.631-8.68,10.765-13.337,15.394 c-19.763,18.412-43.336,29.564-66.05,30.669c-1.143-0.491-2.425-0.738-3.708-0.738c-1.29,0-2.453,0.253-3.496,0.749 c-13.904-0.638-28.134-5.045-41.623-12.584c-13.665-7.851-26.52-19.169-37.977-33.49c-0.839-0.839-1.679-1.679-2.518-2.518 l-0.49-0.163c-18.85-24.722-31.405-57.245-31.405-93.843V192.049z M238.005,384.308l-22.628,50.913l-11.078-15.211l-34.912-48.34 c-0.267-0.267-0.563-0.532-0.869-0.793l-9.203-12.637l3.357-15.108c1.138,1.225,2.292,2.419,3.457,3.594 C185.833,366.877,210.408,380.942,238.005,384.308z M15.787,458.121c0-10.911,5.875-20.984,15.948-26.02 c53.501-28.423,92.015-42.688,126.323-46.949l50.088,68.87l-6.359,31.796H15.787V458.121z M485.82,485.82H299.821l-6.359-31.796 l50.63-69.616c34.188,5.159,73.391,19.413,125.78,46.855c10.072,5.875,15.948,15.948,15.948,26.859V485.82z"/> </g> </g></symbol><symbol id="smartphone" viewBox="0 0 60 60"><title>smartphone</title><path d="M20,49c-2.206,0-4,1.794-4,4s1.794,4,4,4s4-1.794,4-4S22.206,49,20,49z M20,55c-1.103,0-2-0.897-2-2s0.897-2,2-2 s2,0.897,2,2S21.103,55,20,55z"/><path d="M17,5h4c0.552,0,1-0.447,1-1s-0.448-1-1-1h-4c-0.552,0-1,0.447-1,1S16.448,5,17,5z"/><path d="M24,5h1c0.552,0,1-0.447,1-1s-0.448-1-1-1h-1c-0.552,0-1,0.447-1,1S23.448,5,24,5z"/><path d="M56,12H38V4.405C38,1.977,36.024,0,33.595,0H8.405C5.976,0,4,1.977,4,4.405v51.189C4,58.023,5.976,60,8.405,60h25.189 C36.024,60,38,58.023,38,55.595V33h18V12z M8.405,2h25.189C34.921,2,36,3.079,36,4.405V6H6V4.405C6,3.079,7.079,2,8.405,2z M33.595,58H8.405C7.079,58,6,56.921,6,55.595V48h30v7.595C36,56.921,34.921,58,33.595,58z M36,46H6V8h30v4H18v21h4v7l9.333-7H36 V46z M54,31H38h-7.333L24,36v-5h-4V14h18h16V31z"/><path d="M25,21h10c0.552,0,1-0.447,1-1s-0.448-1-1-1H25c-0.552,0-1,0.447-1,1S24.448,21,25,21z"/><path d="M24,25c0,0.553,0.448,1,1,1h24c0.552,0,1-0.447,1-1s-0.448-1-1-1H25C24.448,24,24,24.447,24,25z"/></symbol><symbol id="call-center" viewBox="-71 0 512 512.00101"><title>call-center</title><path d="m228.378906 275.632812c-2.972656-2.972656-7.792968-2.972656-10.765625 0-17.710937 17.714844-46.535156 17.714844-64.25 0-2.972656-2.972656-7.792969-2.972656-10.765625 0-2.972656 2.972657-2.972656 7.792969 0 10.765626 11.828125 11.824218 27.359375 17.738281 42.890625 17.738281 15.535157 0 31.066407-5.910157 42.890625-17.738281 2.972656-2.972657 2.972656-7.792969 0-10.765626zm0 0"/><path d="m140.542969 205.820312c0-4.203124-3.40625-7.613281-7.613281-7.613281-4.203126 0-7.609376 3.410157-7.609376 7.613281v29.65625c0 4.203126 3.40625 7.613282 7.609376 7.613282 4.207031 0 7.613281-3.410156 7.613281-7.613282zm0 0"/><path d="m238.058594 243.089844c4.203125 0 7.613281-3.410156 7.613281-7.613282v-29.65625c0-4.203124-3.410156-7.613281-7.613281-7.613281s-7.613282 3.410157-7.613282 7.613281v29.65625c0 4.203126 3.410157 7.613282 7.613282 7.613282zm0 0"/><path d="m342.378906 158.273438v-1.390626c0-86.507812-70.378906-156.882812-156.882812-156.882812-86.507813 0-156.882813 70.375-156.882813 156.882812v1.390626c-16.332031 3.507812-28.613281 18.050781-28.613281 35.414062v69.601562c0 19.976563 16.25 36.226563 36.226562 36.226563 6.074219 0 11.796876-1.511719 16.832032-4.164063-5.976563 24.832032-17.425782 48.546876-28.011719 59.128907-2.644531 2.648437-2.976563 6.824219-.777344 9.855469 1.367188 1.886718 13.503907 16.929687 53.054688 19.96875-12.941407 20.300781-20.09375 44.117187-20.09375 68.9375v51.144531c0 4.203125 3.40625 7.613281 7.609375 7.613281h162.960937c4.203125 0 7.609375-3.410156 7.609375-7.613281s-3.40625-7.613281-7.609375-7.613281h-155.347656v-43.53125c0-32.605469 13.996094-63.253907 38.042969-84.582032 8.117187 34.089844 38.75 59.164063 74.992187 59.164063 4.90625 0 9.832031-.46875 14.640625-1.398438 30.1875-5.796875 53.46875-28.679687 60.363282-57.75 1.6875 1.496094 3.332031 3.035157 4.925781 4.628907 21.351562 21.363281 33.113281 49.753906 33.113281 79.9375v43.535156h-40.28125c-4.203125 0-7.609375 3.40625-7.609375 7.609375 0 4.207031 3.40625 7.613281 7.609375 7.613281h47.894531c4.203125 0 7.613281-3.40625 7.613281-7.613281v-51.144531c0-24.800782-7-48.527344-20.058593-68.9375 39.527343-3.042969 51.65625-18.082032 53.023437-19.96875 2.199219-3.027344 1.867188-7.207032-.777344-9.851563-4.488281-4.488281-9.242187-11.503906-13.746093-20.28125-1.917969-3.738281-6.507813-5.214844-10.246094-3.296875-3.742187 1.917969-5.21875 6.507812-3.300781 10.25 3.535156 6.886719 7.296875 12.929688 11.097656 17.851562-6.503906 4.085938-20.507812 10.082032-47.019531 10.578126-2.085938-2.414063-4.265625-4.765626-6.542969-7.046876-3.359375-3.355468-6.914062-6.527343-10.628906-9.496093 5.503906-4.40625 10.628906-9.25 15.320312-14.476563 43.777344-6.847656 56.417969-28.523437 60.042969-39.582031 17.050781-2.933594 30.070313-17.816406 30.070313-35.691406v-69.605469c-.003907-17.363281-12.285157-31.90625-28.613282-35.414062zm-156.882812-143.046876c78.109375 0 141.65625 63.542969 141.65625 141.65625v1.390626c-4.902344 1.050781-9.4375 3.105468-13.386719 5.925781v-.132813c0-70.730468-57.542969-128.269531-128.269531-128.269531-28.839844 0-56.078125 9.347656-78.777344 27.03125-3.3125 2.585937-3.90625 7.367187-1.324219 10.683594 2.582031 3.316406 7.367188 3.910156 10.683594 1.328125 19.996094-15.582032 44.003906-23.820313 69.417969-23.820313 62.332031 0 113.046875 50.710938 113.046875 113.046875v22.304688c-59.03125-1.378906-95.835938-18.59375-116.542969-33.140625-23.253906-16.339844-31.785156-32.902344-31.855469-33.039063-1.304687-2.648437-4.019531-4.285156-6.980469-4.242187-2.953124.0625-5.605468 1.828125-6.804687 4.527343-11.066406 24.976563-40.101563 41.371094-63.90625 44.367188v-.777344c0-24.253906 7.566406-47.375 21.878906-66.855468 2.492188-3.390626 1.761719-8.152344-1.628906-10.640626-3.386719-2.492187-8.152344-1.761718-10.640625 1.625-16.246094 22.117188-24.832031 48.351563-24.832031 75.871094v.132813c-3.953125-2.820313-8.484375-4.871094-13.390625-5.925781v-1.390626c-.003906-78.113281 63.546875-141.65625 141.65625-141.65625zm-149.269532 269.0625c-11.582031 0-21-9.417968-21-21v-69.601562c0-11.582031 9.417969-21 21-21 11.578126 0 21 9.417969 21 21v69.601562c0 11.582032-9.421874 21-21 21zm52.035157 85.292969c-24.652344-.46875-39.667969-5.832031-47.078125-10.476562 10.691406-13.765625 20.179687-35.277344 25.828125-57.167969 8.363281 20.101562 21.699219 37.636719 38.457031 51.0625-6.289062 5.023438-12.039062 10.578125-17.207031 16.582031zm108.992187 41.894531c-3.867187.742188-7.824218 1.121094-11.765625 1.121094-28.703125 0-53.03125-19.585937-59.925781-46.382812 17.804688 9.453125 38.082031 14.835937 59.585938 14.878906h.308593c1.101563 0 2.195313-.011719 3.289063-.042969h.054687c.066407 0 .136719 0 .207031-.003906 6.976563-.191406 13.992188-.957031 20.839844-2.273437 12.667969-2.4375 24.601563-6.707032 35.554688-12.5-5.863282 22.785156-24.320313 40.628906-48.148438 45.203124zm9.714844-47.652343c-6.007812 1.15625-12.15625 1.832031-18.273438 2.003906h-.058593c-.074219 0-.148438 0-.222657.003906-1.074218.03125-2.152343.035157-3.238281.035157-62.15625-.117188-112.726562-50.824219-112.726562-113.039063v-72.660156c25.277343-2.601563 55.074219-17.722657 71.441406-42.011719 5.601563 7.234375 14.707031 17.082031 28.410156 26.859375 22.558594 16.101563 62.542969 35.164063 126.238281 36.582031v51.230469c0 26.816406-9.464843 51.800781-25.460937 71.429687-9.398437 1.109376-20.484375 1.527344-33.539063.925782-2.609374-8.871094-10.8125-15.375-20.519531-15.375-11.796875 0-21.394531 9.597656-21.394531 21.394531s9.597656 21.394531 21.394531 21.394531c8.511719 0 15.859375-5.011718 19.300781-12.226562 4.460938.214844 8.746094.324218 12.835938.324218 1.886719 0 3.71875-.03125 5.527344-.070312-14.058594 11.425781-30.972656 19.597656-49.714844 23.199219zm18.191406-32.058594c-.003906.050781-.011718.097656-.015625.144531v.011719c-.359375 3.066406-2.964843 5.449219-6.125 5.449219-3.402343 0-6.167969-2.765625-6.167969-6.167969s2.769532-6.167969 6.167969-6.167969c3.402344 0 6.171875 2.765625 6.171875 6.167969 0 .191406-.011718.378906-.03125.5625zm89.691406-22.058594c-4.445312 3.480469-10.839843 7.121094-19.945312 10.023438 5.933594-9.695313 10.605469-20.207031 13.816406-31.296875 4.367188 4.519531 9.890625 7.90625 16.089844 9.683594-1.746094 3.34375-4.761719 7.515624-9.960938 11.589843zm40.914063-46.417969c0 11.582032-9.421875 21-21 21-11.582031 0-21-9.417968-21-21v-69.601562c0-11.582031 9.421875-21 21-21s21 9.417969 21 21zm0 0"/></symbol><symbol id="podcast" viewBox="0 0 512 512"><title>podcast</title><g> <g> <path d="M400.282,0H111.718C89.896,0,72.141,17.755,72.141,39.577v432.845c0,21.823,17.755,39.577,39.577,39.577h288.564 c21.823,0,39.577-17.755,39.577-39.577V39.577C439.859,17.755,422.104,0,400.282,0z M424.83,448.877h-41.581 c-4.15,0-7.515,3.364-7.515,7.515c0,4.151,3.365,7.515,7.515,7.515h41.581v8.517c0,13.536-11.013,24.548-24.548,24.548H111.718 c-13.535,0-24.548-11.011-24.548-24.548v-8.517h264.016c4.15,0,7.515-3.364,7.515-7.515c0-4.151-3.365-7.515-7.515-7.515H87.17 V63.123h337.66V448.877z M424.83,48.094H87.17v-8.517c0-13.536,11.013-24.548,24.548-24.548h288.564 c13.535,0,24.548,11.011,24.548,24.548V48.094z"/> </g> </g><g> <g> <path d="M272.031,472.924h-32.063c-4.15,0-7.515,3.364-7.515,7.515s3.365,7.515,7.515,7.515h32.063 c4.15,0,7.515-3.364,7.515-7.515S276.181,472.924,272.031,472.924z"/> </g> </g><g> <g> <path d="M257.002,24.047H256c-4.15,0-7.515,3.364-7.515,7.515s3.365,7.515,7.515,7.515h1.002c4.15,0,7.515-3.364,7.515-7.515 S261.152,24.047,257.002,24.047z"/> </g> </g><g> <g> <path d="M289.065,24.047h-1.002c-4.15,0-7.515,3.364-7.515,7.515s3.365,7.515,7.515,7.515h1.002c4.15,0,7.515-3.364,7.515-7.515 S293.215,24.047,289.065,24.047z"/> </g> </g><g> <g> <path d="M224.939,24.047h-1.002c-4.15,0-7.515,3.364-7.515,7.515s3.365,7.515,7.515,7.515h1.002c4.15,0,7.515-3.364,7.515-7.515 S229.089,24.047,224.939,24.047z"/> </g> </g><g> <g> <path d="M256,176.344c-26.242,0-47.593,21.351-47.593,47.593S229.758,271.53,256,271.53s47.593-21.351,47.593-47.593 S282.242,176.344,256,176.344z M256,256.501c-17.955,0-32.564-14.608-32.564-32.564s14.609-32.564,32.564-32.564 s32.564,14.608,32.564,32.564S273.955,256.501,256,256.501z"/> </g> </g><g> <g> <path d="M310.19,283.668c-1.413-1.959-3.681-3.12-6.096-3.12h-96.188c-5.041,0-8.726,5.101-7.129,9.891l48.094,144.282 c1.004,3.012,3.956,5.138,7.129,5.138c3.174,0,6.125-2.126,7.129-5.138l48.094-144.282 C311.986,288.148,311.603,285.628,310.19,283.668z M256,408.581l-37.668-113.004h75.335L256,408.581z"/> </g> </g><g> <g> <path d="M256,136.266c-48.342,0-87.671,39.329-87.671,87.671c0,19.151,6.065,37.346,17.539,52.618 c2.653,3.533,7.945,3.982,11.164,0.955c2.751-2.588,3.119-6.965,0.852-9.982c-9.503-12.649-14.525-27.722-14.525-43.591 c0-40.055,32.587-72.642,72.642-72.642s72.642,32.587,72.642,72.642c0,15.869-5.023,30.94-14.524,43.587 c-2.493,3.318-1.825,8.029,1.494,10.522c3.319,2.495,8.03,1.825,10.522-1.494c11.473-15.271,17.538-33.464,17.538-52.615 C343.671,175.595,304.342,136.266,256,136.266z"/> </g> </g><g> <g> <path d="M256,104.203c-66.022,0-119.734,53.712-119.734,119.734c0,41.289,20.854,79.136,55.785,101.244 c3.741,2.367,8.841,0.906,10.777-3.064c1.656-3.396,0.449-7.618-2.74-9.637c-30.552-19.336-48.792-52.435-48.792-88.543 c0-57.734,46.97-104.705,104.705-104.705c57.735,0,104.705,46.971,104.705,104.705c0,35.893-18.075,68.889-48.35,88.262 c-3.496,2.236-4.517,6.884-2.279,10.379c2.236,3.496,6.884,4.517,10.38,2.279c34.614-22.149,55.279-59.877,55.279-100.921 C375.734,157.915,322.022,104.203,256,104.203z"/> </g> </g><g> <g> <path d="M256,72.141c-83.701,0-151.796,68.096-151.796,151.797c0,64.511,40.902,122.124,101.779,143.36 c4.075,1.422,8.62-0.993,9.736-5.156c1.005-3.749-1.123-7.756-4.785-9.034c-54.849-19.134-91.7-71.044-91.7-129.17 c0-75.414,61.354-136.767,136.767-136.767s136.767,61.353,136.767,136.767c0,57.876-36.642,109.711-91.178,128.986 c-3.913,1.383-5.964,5.676-4.581,9.589c1.383,3.913,5.674,5.964,9.59,4.581c60.53-21.394,101.198-78.924,101.198-143.157 C407.796,140.237,339.702,72.141,256,72.141z"/> </g> </g></symbol><symbol id="login" viewBox="0 0 511.999 511.999"><title>login</title><path d="M418.071,297.743h-40.208H93.929c-31.846,0-57.754,25.909-57.754,57.755s25.909,57.754,57.754,57.754h33.852 l-4.369,3.549c-5.031,4.088-7.295,10.561-5.909,16.892c1.386,6.332,6.147,11.268,12.426,12.879l2.269,0.583l-11.198,43.629 c-1.373,5.35,1.851,10.799,7.2,12.172l34.009,8.729c0.819,0.211,1.654,0.314,2.486,0.314c1.776,0,3.537-0.474,5.091-1.393 c2.283-1.351,3.936-3.553,4.595-6.121l11.199-43.631l2.269,0.583c6.279,1.611,12.828-0.421,17.092-5.304 c4.264-4.882,5.396-11.645,2.956-17.649l-10.257-25.233h180.223h40.208v0.001c31.846,0,57.754-25.908,57.754-57.754 S449.915,297.743,418.071,297.743z M134.364,438.712l-0.004,0.015c0.002-0.006,0.003-0.013,0.005-0.019 C134.364,438.71,134.364,438.711,134.364,438.712z M182.116,439.318c-2.921-0.752-5.959-0.32-8.556,1.216 c-2.596,1.535-4.438,3.989-5.186,6.907l-10.879,42.387l-14.638-3.758l10.878-42.382c0.751-2.922,0.319-5.961-1.218-8.558 c-1.537-2.596-3.992-4.438-6.906-5.182l-5.064-1.301l18.953-15.396l12.441-10.106l4.108,10.106l11.123,27.364L182.116,439.318z M367.862,393.252H189.51l-4.126-10.15c-1.194-2.936-3.708-5.133-6.778-5.92c-3.072-0.79-6.332-0.075-8.792,1.924L152.4,393.252 H93.929c-20.818,0-37.754-16.937-37.754-37.754c0-20.818,16.937-37.755,37.754-37.755h273.934V393.252z M418.071,393.252h-30.208 v-75.509h30.208c20.818,0,37.754,16.937,37.754,37.755C455.824,376.315,438.887,393.252,418.071,393.252z"/><path d="M423.868,332.589c-3.425-4.332-9.714-5.069-14.046-1.642c-4.333,3.425-5.067,9.714-1.642,14.046l6.735,8.519 l-6.735,8.519c-3.425,4.332-2.69,10.621,1.642,14.046c1.836,1.452,4.023,2.156,6.195,2.156c2.953-0.001,5.877-1.302,7.851-3.798 l11.64-14.721c2.875-3.635,2.875-8.77,0-12.404L423.868,332.589z"/><path d="M96.979,359.319c0.25,0.61,0.56,1.19,0.92,1.73c0.37,0.55,0.79,1.06,1.25,1.52c0.46,0.461,0.97,0.881,1.52,1.24 c0.54,0.36,1.12,0.67,1.72,0.92c0.61,0.25,1.23,0.44,1.87,0.57c0.65,0.13,1.3,0.2,1.96,0.2c0.65,0,1.3-0.07,1.95-0.2 c0.64-0.13,1.27-0.32,1.87-0.57c0.6-0.25,1.19-0.56,1.73-0.92c0.54-0.359,1.06-0.779,1.52-1.24c0.46-0.46,0.88-0.97,1.24-1.52 c0.36-0.54,0.67-1.12,0.92-1.73c0.25-0.6,0.44-1.229,0.57-1.869c0.13-0.641,0.2-1.301,0.2-1.95c0-0.65-0.07-1.311-0.2-1.96 c-0.13-0.63-0.32-1.26-0.57-1.87c-0.25-0.601-0.56-1.18-0.92-1.72c-0.36-0.551-0.78-1.061-1.24-1.521 c-0.46-0.46-0.98-0.88-1.52-1.25c-0.54-0.36-1.13-0.67-1.73-0.92c-0.6-0.25-1.23-0.44-1.87-0.57c-3.25-0.649-6.7,0.41-9.02,2.74 c-0.46,0.46-0.88,0.97-1.25,1.521c-0.36,0.54-0.67,1.119-0.92,1.72c-0.25,0.61-0.44,1.24-0.57,1.87 c-0.13,0.649-0.19,1.31-0.19,1.96c0,0.649,0.06,1.31,0.19,1.95S96.729,358.72,96.979,359.319z"/><path d="M150.16,359.319c0.25,0.61,0.56,1.19,0.92,1.73c0.37,0.55,0.79,1.06,1.25,1.52c0.46,0.461,0.97,0.881,1.52,1.24 c0.54,0.36,1.12,0.67,1.72,0.92c0.61,0.25,1.24,0.44,1.87,0.57c0.65,0.13,1.31,0.2,1.96,0.2s1.31-0.07,1.95-0.2 c0.64-0.13,1.27-0.32,1.87-0.57c0.61-0.25,1.19-0.56,1.73-0.92c0.55-0.359,1.06-0.779,1.52-1.24c0.46-0.46,0.88-0.97,1.24-1.52 c0.36-0.54,0.67-1.12,0.92-1.73c0.25-0.6,0.44-1.229,0.57-1.869c0.13-0.641,0.2-1.301,0.2-1.95c0-0.65-0.07-1.311-0.2-1.96 c-0.13-0.63-0.32-1.26-0.57-1.87c-0.25-0.601-0.56-1.18-0.92-1.72c-0.36-0.551-0.78-1.061-1.24-1.521 c-2.32-2.33-5.77-3.39-9.03-2.74c-0.63,0.13-1.26,0.32-1.87,0.57c-0.6,0.25-1.18,0.56-1.72,0.92c-0.55,0.37-1.06,0.79-1.52,1.25 c-0.46,0.46-0.88,0.97-1.25,1.521c-0.36,0.54-0.67,1.119-0.92,1.72c-0.25,0.61-0.44,1.24-0.57,1.87 c-0.13,0.649-0.19,1.31-0.19,1.96c0,0.649,0.06,1.31,0.19,1.95S149.91,358.72,150.16,359.319z"/><path d="M203.349,359.319c0.25,0.61,0.56,1.19,0.92,1.73c0.36,0.55,0.78,1.06,1.24,1.52c0.46,0.461,0.97,0.881,1.52,1.24 c0.54,0.36,1.12,0.67,1.73,0.92c0.6,0.25,1.23,0.44,1.87,0.57c0.64,0.13,1.3,0.2,1.95,0.2c0.65,0,1.31-0.07,1.95-0.2 s1.27-0.32,1.87-0.57c0.61-0.25,1.19-0.56,1.73-0.92c0.55-0.359,1.06-0.779,1.52-1.24c0.46-0.46,0.88-0.97,1.24-1.52 c0.36-0.54,0.67-1.12,0.92-1.73c0.25-0.6,0.44-1.229,0.57-1.869c0.13-0.641,0.2-1.301,0.2-1.95c0-0.65-0.07-1.311-0.2-1.96 c-0.12-0.63-0.32-1.26-0.57-1.87c-0.25-0.601-0.56-1.18-0.92-1.72c-0.36-0.551-0.78-1.061-1.24-1.521 c-2.32-2.33-5.78-3.39-9.02-2.74c-0.64,0.13-1.27,0.32-1.88,0.57c-0.6,0.25-1.18,0.56-1.72,0.92c-0.55,0.37-1.06,0.79-1.52,1.25 c-0.46,0.46-0.88,0.97-1.24,1.521c-0.36,0.54-0.67,1.119-0.92,1.72c-0.25,0.61-0.45,1.24-0.57,1.87 c-0.13,0.649-0.2,1.31-0.2,1.96c0,0.649,0.07,1.31,0.2,1.95C202.899,358.09,203.099,358.72,203.349,359.319z"/><path d="M256.53,359.319c0.25,0.61,0.56,1.19,0.92,1.73c0.36,0.55,0.78,1.06,1.24,1.52c0.46,0.461,0.97,0.881,1.52,1.24 c0.54,0.36,1.12,0.67,1.73,0.92c0.6,0.25,1.23,0.44,1.87,0.57c0.64,0.13,1.3,0.2,1.95,0.2s1.31-0.07,1.95-0.2 s1.27-0.32,1.87-0.57c0.61-0.25,1.19-0.56,1.73-0.92c0.55-0.359,1.06-0.779,1.52-1.24c0.46-0.46,0.88-0.97,1.24-1.52 c0.36-0.54,0.67-1.12,0.92-1.73c0.25-0.6,0.45-1.229,0.57-1.869c0.13-0.641,0.2-1.301,0.2-1.95c0-0.65-0.07-1.311-0.2-1.96 c-0.12-0.63-0.32-1.26-0.57-1.87c-0.25-0.601-0.56-1.18-0.92-1.72c-0.36-0.551-0.78-1.061-1.24-1.521 c-2.32-2.33-5.78-3.39-9.02-2.74c-0.64,0.13-1.27,0.32-1.87,0.57c-0.61,0.25-1.19,0.56-1.73,0.92c-0.55,0.37-1.06,0.79-1.52,1.25 c-0.46,0.46-0.88,0.97-1.24,1.521c-0.36,0.54-0.67,1.119-0.92,1.72c-0.25,0.61-0.44,1.24-0.57,1.87 c-0.13,0.649-0.2,1.31-0.2,1.96c0,0.649,0.07,1.31,0.2,1.95C256.09,358.09,256.28,358.72,256.53,359.319z"/><path d="M309.71,359.319c0.25,0.61,0.56,1.19,0.92,1.73c0.36,0.55,0.78,1.06,1.24,1.52c0.46,0.461,0.97,0.881,1.52,1.24 c0.54,0.36,1.12,0.67,1.73,0.92c0.6,0.25,1.23,0.44,1.87,0.57c0.64,0.13,1.3,0.2,1.95,0.2s1.31-0.07,1.96-0.2 c0.63-0.13,1.26-0.32,1.87-0.57c0.6-0.25,1.18-0.56,1.72-0.92c0.55-0.359,1.06-0.779,1.52-1.24c0.46-0.46,0.88-0.97,1.25-1.52 c0.36-0.54,0.67-1.12,0.92-1.73c0.25-0.6,0.44-1.229,0.57-1.869c0.13-0.641,0.19-1.301,0.19-1.95c0-0.65-0.06-1.311-0.19-1.96 c-0.13-0.63-0.32-1.26-0.57-1.87c-0.25-0.601-0.56-1.18-0.92-1.72c-0.37-0.551-0.79-1.061-1.25-1.521 c-0.46-0.46-0.97-0.88-1.52-1.25c-0.54-0.36-1.12-0.67-1.72-0.92c-0.61-0.25-1.24-0.44-1.87-0.57c-1.29-0.26-2.62-0.26-3.91,0 c-0.64,0.13-1.27,0.32-1.87,0.57c-0.61,0.25-1.19,0.56-1.73,0.92c-0.55,0.37-1.06,0.79-1.52,1.25 c-0.46,0.46-0.88,0.97-1.24,1.521c-0.36,0.54-0.67,1.119-0.92,1.72c-0.25,0.61-0.44,1.24-0.57,1.87 c-0.13,0.649-0.2,1.31-0.2,1.96c0,0.649,0.07,1.31,0.2,1.95S309.46,358.72,309.71,359.319z"/><path d="M168.259,252.763c0.245,0.233,0.498,0.459,0.768,0.668c22.963,17.766,50.111,27.821,78.925,29.321 c0.205,0.011,0.411,0.021,0.616,0.031c0.914,0.044,1.831,0.078,2.748,0.105c0.27,0.008,0.54,0.018,0.81,0.025 c1.131,0.026,2.263,0.043,3.399,0.043c1.142,0,2.281-0.017,3.419-0.043c0.26-0.006,0.518-0.016,0.777-0.024 c0.94-0.027,1.877-0.062,2.813-0.107c0.18-0.009,0.359-0.018,0.538-0.028c29.286-1.515,56.797-11.843,79.972-30.112 c0.318-0.251,0.617-0.522,0.899-0.806C376.267,225.885,397,186.061,397,141.479C397.001,63.467,333.535,0,255.525,0 S114.046,63.467,114.046,141.478C114.046,186.591,135.27,226.839,168.259,252.763z M268.515,262.259 c-0.62,0.065-1.241,0.125-1.863,0.181c-0.688,0.063-1.375,0.126-2.066,0.177c-1.199,0.087-2.401,0.157-3.607,0.209 c-0.413,0.019-0.826,0.033-1.24,0.047c-1.401,0.047-2.805,0.081-4.215,0.081c-1.392,0-2.778-0.033-4.162-0.079 c-0.408-0.014-0.815-0.029-1.221-0.046c-1.151-0.05-2.298-0.116-3.443-0.197c-0.666-0.048-1.33-0.106-1.993-0.165 c-0.718-0.063-1.435-0.131-2.151-0.206c-0.799-0.085-1.597-0.173-2.392-0.274c-0.141-0.018-0.281-0.039-0.422-0.057 c-20.159-2.627-38.78-10.213-54.596-21.493v-18.105c0-23.827,11.834-44.928,29.92-57.779 c11.304,8.834,25.509,14.119,40.934,14.119s29.631-5.284,40.934-14.119c18.086,12.851,29.92,33.952,29.92,57.779v17.412h0.001 C310.113,251.929,290.157,259.948,268.515,262.259z M255.525,20c66.983,0,121.478,54.494,121.478,121.478 c0,30.622-11.394,58.63-30.159,80.018c-0.265-29.199-14.371-55.15-36.064-71.597c7.453-10.756,11.835-23.793,11.835-37.841 c0-3.305-0.245-6.629-0.729-9.88c-0.813-5.462-5.897-9.231-11.363-8.419c-5.463,0.813-9.232,5.899-8.419,11.362 c0.339,2.279,0.511,4.613,0.511,6.937c0,10.303-3.366,19.832-9.048,27.557c-4.61,6.268-10.747,11.341-17.859,14.673 c-5.99,2.807-12.667,4.385-19.707,4.385c-7.04,0-13.717-1.578-19.707-4.385c-7.112-3.332-13.249-8.405-17.859-14.673 c-5.682-7.725-9.048-17.253-9.048-27.557c0-25.703,20.911-46.614,46.614-46.614c3.538,0,7.061,0.396,10.473,1.179 c5.389,1.239,10.749-2.129,11.982-7.513c1.234-5.383-2.129-10.747-7.512-11.981c-4.875-1.118-9.903-1.685-14.942-1.685 c-36.731,0-66.614,29.883-66.614,66.614c0,14.048,4.382,27.085,11.835,37.841c-21.901,16.604-36.075,42.893-36.075,72.433v0.222 c-19.326-21.518-31.101-49.946-31.101-81.076C134.046,74.494,188.541,20,255.525,20z"/><path d="M288.259,77.37c0.25,0.6,0.56,1.18,0.92,1.72c0.36,0.55,0.78,1.06,1.24,1.52c0.46,0.471,0.97,0.881,1.52,1.25 c0.54,0.36,1.12,0.671,1.73,0.921c0.6,0.25,1.23,0.439,1.87,0.569s1.3,0.19,1.95,0.19s1.31-0.061,1.95-0.19 c0.64-0.13,1.27-0.319,1.88-0.569c0.6-0.25,1.18-0.561,1.72-0.921c0.55-0.369,1.06-0.779,1.52-1.25 c0.46-0.46,0.88-0.97,1.24-1.52c0.36-0.54,0.67-1.12,0.92-1.72c0.25-0.61,0.45-1.23,0.57-1.87c0.13-0.65,0.2-1.3,0.2-1.96 c0-0.65-0.07-1.311-0.2-1.95c-0.12-0.64-0.32-1.271-0.57-1.87s-0.56-1.189-0.92-1.729c-0.36-0.551-0.78-1.061-1.24-1.521 c-0.46-0.46-0.97-0.88-1.52-1.24c-0.54-0.359-1.12-0.67-1.72-0.92c-0.61-0.25-1.24-0.439-1.88-0.569 c-1.29-0.261-2.61-0.261-3.9,0c-0.64,0.13-1.27,0.319-1.87,0.569c-0.61,0.25-1.19,0.561-1.73,0.92 c-0.55,0.36-1.06,0.78-1.52,1.24c-0.46,0.46-0.88,0.97-1.24,1.521c-0.36,0.54-0.67,1.13-0.92,1.729s-0.44,1.23-0.57,1.87 c-0.13,0.64-0.2,1.3-0.2,1.95c0,0.66,0.07,1.31,0.2,1.96C287.819,76.14,288.009,76.76,288.259,77.37z"/></symbol><symbol id="bell" viewBox="0 0 512 512"><title>bell</title><path d="m512 418.132812v-8.53125c0-132.519531-101.214844-241.832031-230.398438-254.71875v-18.347656h17.066407c4.710937 0 8.53125-3.816406 8.53125-8.535156 0-23.523438-19.140625-42.667969-42.667969-42.667969h-17.066406c-23.523438 0-42.664063 19.144531-42.664063 42.667969 0 4.71875 3.820313 8.535156 8.53125 8.535156h17.066407v18.347656c-129.183594 12.886719-230.398438 122.199219-230.398438 254.71875v8.53125c0 4.71875 3.820312 8.535157 8.535156 8.535157h24.027344c-3.535156 9.910156-12.917969 17.066406-24.027344 17.066406-4.714844 0-8.535156 3.816406-8.535156 8.53125v51.199219c0 4.71875 3.820312 8.535156 8.535156 8.535156h494.929688c4.714844 0 8.535156-3.816406 8.535156-8.535156v-51.199219c0-4.714844-3.820312-8.53125-8.535156-8.53125-11.109375 0-20.492188-7.15625-24.027344-17.066406h24.027344c4.714844-.003907 8.535156-3.820313 8.535156-8.535157zm-247.46875-315.734374c11.125 0 20.617188 7.136718 24.140625 17.070312h-32.671875v-17.070312zm-17.066406 34.136718h17.066406v17.066406h-17.066406zm-24.136719-17.066406c2.574219-7.257812 8.351563-12.984375 15.605469-15.5625v15.5625zm271.605469 341.332031v34.132813h-477.867188v-34.132813zm-452.289063-17.066406c3.734375-4.96875 6.414063-10.769531 7.695313-17.070313h411.320312c1.28125 6.300782 3.960938 12.101563 7.695313 17.070313zm426.6875-34.132813h-452.265625c0-131.75 107.183594-238.933593 238.933594-238.933593s238.933594 107.183593 238.933594 238.933593zm0 0"/><path d="m238.933594 68.265625h34.132812c4.171875 0 7.734375-3.015625 8.417969-7.132813l8.53125-51.199218c.414063-2.476563-.28125-5-1.902344-6.917969-1.621093-1.917969-4.003906-3.015625-6.511719-3.015625h-51.203124c-2.507813 0-4.890626 1.101562-6.511719 3.015625-1.621094 1.917969-2.316407 4.441406-1.902344 6.917969l8.53125 51.199218c.683594 4.117188 4.246094 7.132813 8.417969 7.132813zm32.589844-51.199219-5.6875 34.132813h-19.671876l-5.6875-34.132813zm0 0"/><path d="m100.191406 136.226562c1.492188 1.066407 3.230469 1.589844 4.953125 1.589844 2.199219 0 4.386719-.847656 6.039063-2.5l24.136718-24.132812c2.949219-2.949219 3.332032-7.601563.910157-10.992188l-30.171875-42.234375c-1.453125-2.042969-3.738282-3.339843-6.238282-3.550781-2.535156-.183594-4.964843.703125-6.738281 2.476562l-36.203125 36.199219c-1.773437 1.777344-2.679687 4.234375-2.46875 6.734375.207032 2.5 1.503906 4.78125 3.542969 6.242188zm-2.164062-60.152343 20.113281 28.148437-13.910156 13.917969-28.160157-20.117187zm0 0"/><path d="m400.816406 135.316406c1.648438 1.648438 3.835938 2.5 6.039063 2.5 1.722656 0 3.460937-.523437 4.953125-1.589844l42.238281-30.167968c2.039063-1.457032 3.335937-3.742188 3.542969-6.242188.210937-2.5-.695313-4.957031-2.46875-6.734375l-36.203125-36.199219c-1.773438-1.773437-4.203125-2.640624-6.738281-2.472656-2.5.207032-4.785157 1.507813-6.238282 3.546875l-30.171875 42.234375c-2.425781 3.394532-2.042969 8.042969.910157 10.992188zm13.152344-59.242187 21.960938 21.949219-28.160157 20.117187-13.914062-13.917969zm0 0"/><path d="m77.054688 322.199219 16.554687 4.160156c.015625-.078125 2.0625-7.953125 7.890625-19.609375l-15.265625-7.632812c-6.742187 13.484374-9.085937 22.691406-9.179687 23.082031zm0 0"/><path d="m194.195312 205.058594c-1.488281.367187-36.832031 9.507812-72.234374 44.910156-8.324219 8.332031-15.859376 17.332031-22.40625 26.765625l14.015624 9.734375c5.972657-8.601562 12.855469-16.828125 20.464844-24.433594 31.855469-31.859375 64.003906-40.34375 64.324219-40.425781l-2.09375-8.273437zm0 0"/><path d="m358.398438 469.332031h119.46875v17.066407h-119.46875zm0 0"/><path d="m324.265625 469.332031h17.066406v17.066407h-17.066406zm0 0"/></symbol><symbol id="medical-history" viewBox="0 0 512 512"><title>medical-history</title><g> <g> <rect x="96" y="362.67" width="42.667" height="21.333"/> </g> </g><g> <g> <rect x="96" y="405.33" width="64" height="21.333"/> </g> </g><g> <g> <path d="M502.402,456.139l-118.4-118.414V74.667c0-17.673-14.327-32-32-32H137.6C132.658,18.323,111.137,0,85.335,0 S38.013,18.323,33.071,42.667h-1.069c-17.673,0-32,14.327-32,32V480c0,17.673,14.327,32,32,32h320c17.673,0,32-14.327,32-32 v-49.73l72.139,72.13c6.128,6.156,14.46,9.612,23.147,9.6c8.682-0.001,17.007-3.453,23.142-9.596 C515.198,489.621,515.186,468.907,502.402,456.139z M85.335,21.333c13.932,0,25.778,8.906,30.172,21.333H55.164 C59.557,30.239,71.403,21.333,85.335,21.333z M362.669,480c0,5.891-4.776,10.667-10.667,10.667h-320 c-5.891,0-10.667-4.776-10.667-10.667V74.667C21.335,68.776,26.111,64,32.002,64h85.333v117.333 c0,5.891-4.776,10.667-10.667,10.667c-5.891,0-10.667-4.776-10.667-10.667v-96H74.669v96c0,17.673,14.327,32,32,32 s32-14.327,32-32V64h213.333c5.891,0,10.667,4.776,10.667,10.667V316.39l-32-32.004V96c0-5.891-4.776-10.667-10.667-10.667h-160 v21.333h149.333V265.38l-59.232-29.55c-3.007-1.507-6.549-1.507-9.556,0c-0.572,0.286-1.099,0.625-1.595,0.994l-0.017-0.023 l-30.272,22.677l-17.067-59.733c-0.498-1.747-1.433-3.338-2.718-4.622c-4.167-4.165-10.92-4.163-15.085,0.003L144.919,224H64.002 c-5.891,0-10.667,4.776-10.667,10.667v224c0,5.891,4.776,10.667,10.667,10.667h256c5.891,0,10.667-4.776,10.667-10.667v-81.724 l32,31.996V480z M279.447,289.718l-10.282-20.545l20.551,10.276L279.447,289.718z M309.335,355.611V448H74.669V245.333h74.667 c2.822,0.002,5.53-1.114,7.531-3.104l19.2-19.2l16.341,57.227c0.358,1.256,0.943,2.437,1.727,3.481 c3.536,4.712,10.222,5.665,14.934,2.129l32.422-24.316l25.487,50.983l0.027-0.013c0.498,0.989,1.153,1.918,1.978,2.744 L309.335,355.611z M291.607,307.723l16.117-16.117l140.908,140.907l-16.117,16.117L291.607,307.723z M487.341,487.339 c-4.451,4.451-11.667,4.451-16.117,0L447.6,463.715l16.117-16.117l23.623,23.623C491.792,475.672,491.792,482.888,487.341,487.339 z"/> </g> </g></symbol><symbol id="bar-chart" viewBox="0 0 512 512"><title>bar-chart</title><g> <g> <path d="M488.399,492h-21.933V173.536c0-14.823-12.06-26.882-26.882-26.882H390.56c-14.823,0-26.882,12.06-26.882,26.882V492 h-55.692V317.825c0-14.823-12.059-26.882-26.882-26.882H232.08c-14.823,0-26.882,12.06-26.882,26.882V492h-55.692v-90.204 c0-14.823-12.06-26.882-26.882-26.882H73.599c-14.823,0-26.882,12.06-26.882,26.882V492H23.601c-5.523,0-10,4.477-10,10 s4.477,10,10,10h464.798c5.523,0,10-4.477,10-10S493.922,492,488.399,492z M129.504,492H66.716v-90.204 c0-3.795,3.087-6.882,6.882-6.882h49.024c3.795,0,6.882,3.087,6.882,6.882V492z M287.985,492h-62.788V317.825 c0-3.795,3.087-6.882,6.882-6.882h49.024c3.794,0,6.882,3.087,6.882,6.882V492z M446.466,492h-62.788V173.536 c0-3.795,3.087-6.882,6.882-6.882h49.024c3.795,0,6.882,3.087,6.882,6.882V492z"/> </g> </g><g> <g> <path d="M466.442,10.516c0.14-2.729-0.82-5.504-2.904-7.588c-2.084-2.084-4.859-3.045-7.588-2.904 C455.789,0.017,455.63,0,455.466,0h-60.5c-5.523,0-10,4.477-10,10s4.477,10,10,10h37.357l-98.857,98.858l-37.28-37.28 c-1.875-1.875-4.419-2.929-7.071-2.929c-2.652,0-5.196,1.054-7.071,2.929l-179.769,179.77c-3.905,3.905-3.905,10.237,0,14.143 c1.953,1.951,4.512,2.927,7.071,2.927s5.119-0.976,7.071-2.929L289.115,102.79l37.28,37.28c3.905,3.905,10.237,3.905,14.143,0 L446.466,34.143v33.81c0,5.523,4.477,10,10,10s10-4.477,10-10V11C466.466,10.837,466.449,10.678,466.442,10.516z"/> </g> </g><g> <g> <circle cx="75.64" cy="303.31" r="10"/> </g> </g></symbol><symbol id="globe" viewBox="0 0 48.749 48.748"><title>globe</title><path d="M44.268,10.32c-0.371-0.524-0.758-1.035-1.17-1.527C38.624,3.424,31.891,0,24.374,0c-0.014,0-0.025,0.001-0.037,0.001 C24.329,0.001,24.323,0,24.315,0c-0.027,0-0.055,0.003-0.084,0.003C16.771,0.046,10.097,3.46,5.649,8.793 c-0.41,0.493-0.799,1.003-1.17,1.527C1.663,14.295,0,19.142,0,24.374c0,5.231,1.662,10.08,4.479,14.054 c0.371,0.524,0.76,1.035,1.17,1.527c4.447,5.333,11.121,8.747,18.582,8.79c0.029,0,0.057,0.003,0.084,0.003 c0.008,0,0.014-0.001,0.021-0.001c0.012,0,0.023,0.001,0.037,0.001c7.518,0,14.25-3.423,18.725-8.792 c0.41-0.492,0.799-1.004,1.17-1.528c2.816-3.975,4.479-8.822,4.479-14.055C48.747,19.143,47.084,14.295,44.268,10.32z M17.249,3.17 c-2.24,2.161-4.102,5.32-5.385,9.111c-1.719-0.642-3.266-1.415-4.6-2.289C9.879,6.886,13.318,4.494,17.249,3.17z M6.09,11.521 c1.516,1.012,3.268,1.897,5.205,2.626c-0.836,3.054-1.316,6.444-1.334,10.021H2.004C2.047,19.463,3.562,15.109,6.09,11.521z M2.079,26.168H10c0.129,2.994,0.584,5.835,1.293,8.434c-1.938,0.729-3.689,1.614-5.203,2.627 C3.849,34.048,2.404,30.266,2.079,26.168z M7.27,38.752c1.334-0.872,2.877-1.643,4.592-2.285c1.283,3.792,3.146,6.949,5.387,9.11 C13.318,44.254,9.886,41.857,7.27,38.752z M23.374,46.676c-4.104-0.562-7.646-4.771-9.654-10.833 c2.895-0.868,6.172-1.394,9.654-1.479V46.676z M23.374,32.366c-3.672,0.088-7.133,0.655-10.215,1.601 c-0.631-2.396-1.035-5.025-1.156-7.798h11.371V32.366z M23.374,24.168H11.961c0.018-3.359,0.455-6.532,1.207-9.384 c3.078,0.943,6.537,1.511,10.205,1.598V24.168z M23.374,14.384c-3.48-0.085-6.756-0.609-9.648-1.477 c2.007-6.059,5.546-10.272,9.648-10.835V14.384z M46.741,24.168h-8.072c-0.018-3.562-0.492-6.938-1.322-9.981 c1.98-0.736,3.769-1.635,5.31-2.665C45.184,15.11,46.698,19.463,46.741,24.168z M41.481,9.994 c-1.361,0.891-2.943,1.676-4.703,2.325c-1.295-3.843-3.184-7.04-5.459-9.209C35.323,4.421,38.825,6.84,41.481,9.994z M25.374,2.087 c4.059,0.627,7.555,4.832,9.541,10.85c-2.865,0.849-6.104,1.363-9.541,1.447V2.087z M25.374,16.383 c3.625-0.086,7.045-0.642,10.096-1.565c0.748,2.844,1.182,6.005,1.199,9.351H25.374V16.383z M25.374,26.168h11.254 c-0.121,2.76-0.523,5.377-1.148,7.766c-3.055-0.926-6.479-1.481-10.104-1.568L25.374,26.168L25.374,26.168z M25.374,46.661V34.365 c3.439,0.084,6.678,0.598,9.547,1.447C32.932,41.832,29.432,46.034,25.374,46.661z M31.319,45.639 c2.275-2.168,4.168-5.363,5.463-9.207c1.756,0.648,3.336,1.432,4.695,2.321C38.821,41.906,35.323,44.327,31.319,45.639z M42.657,37.229c-1.541-1.03-3.33-1.931-5.311-2.666c0.702-2.588,1.153-5.416,1.28-8.394h8.041 C46.342,30.266,44.901,34.049,42.657,37.229z"/></symbol><symbol id="notification" viewBox="0 0 511.999 511.999"><title>notification</title><g> <g> <path d="M442.881,378.052c-10.825-9.896-17.034-23.927-17.034-38.495v-99.558c0-5.522-4.477-10-10-10s-10,4.478-10,10v99.558 c0,20.17,8.58,39.581,23.54,53.257c5.377,4.915,8.46,11.908,8.46,19.188c0,14.335-11.663,25.998-25.998,25.998H99.846 c-14.335,0-25.998-11.663-25.998-25.998c0-7.279,3.083-14.272,8.46-19.188c14.96-13.676,23.54-33.087,23.54-53.257V223.999 c0-82.71,67.29-150,150-150c22.748,0,45.154,5.173,65.446,15.012c-7.053,11.33-11.143,24.688-11.143,38.988 c0,40.804,33.196,74,74,74s74-33.196,74-74s-33.196-74-74-74c-19.123,0-36.576,7.292-49.723,19.241 c-14.906-7.775-30.897-13.273-47.41-16.344c3.684-5.75,5.83-12.576,5.83-19.897c0-20.401-16.598-36.999-37-36.999 c-20.402,0-37,16.598-37,36.999c0,7.313,2.141,14.131,5.817,19.878C145.769,71.562,85.848,140.91,85.848,223.999v115.558 c0,14.568-6.208,28.599-17.034,38.495c-9.511,8.694-14.966,21.068-14.966,33.949c0,25.363,20.635,45.998,45.998,45.998h92.788 c4.816,30.556,31.326,54,63.214,54s58.398-23.444,63.214-54h92.788c25.363,0,45.998-20.635,45.998-45.998 C457.848,399.12,452.393,386.746,442.881,378.052z M384.15,73.999c29.776,0,54,24.225,54,54c0,29.775-24.224,54-54,54 s-54-24.225-54-54C330.15,98.224,354.374,73.999,384.15,73.999z M255.848,19.999c9.374,0,17,7.626,17,16.999 c0,9.374-7.626,17-17,17c-9.374,0-17-7.626-17-17C238.848,27.625,246.474,19.999,255.848,19.999z M255.848,491.999 c-20.821,0-38.298-14.542-42.84-34h85.68C294.146,477.457,276.669,491.999,255.848,491.999z"/> </g> </g><g> <g> <path d="M143.848,213.791c-5.523,0-10,4.478-10,10v0.208c0,5.522,4.477,10,10,10s10-4.478,10-10v-0.208 C153.848,218.269,149.371,213.791,143.848,213.791z"/> </g> </g><g> <g> <path d="M255.848,101.999c-49.071,0-93.17,29.188-112.346,74.362c-2.158,5.083,0.214,10.954,5.297,13.112 c1.275,0.541,2.6,0.798,3.903,0.798c3.892,0,7.593-2.287,9.21-6.095c16.034-37.771,52.906-62.177,93.936-62.177 c5.523,0,10-4.478,10-10C265.848,106.477,261.371,101.999,255.848,101.999z"/> </g> </g><g> <g> <path d="M387.675,95.593c-3.735-1.544-8.037-0.692-10.898,2.168l-11.5,11.5c-3.905,3.905-3.905,10.237,0,14.143 c2.334,2.333,5.537,3.275,8.571,2.816v18.112c0,5.522,4.477,10,10,10s10-4.478,10-10v-39.5 C393.848,100.787,391.411,97.141,387.675,95.593z"/> </g> </g></symbol><symbol id="camera" viewBox="0 0 512 512"><title>camera</title><g> <g> <path d="M462,276.01c-5.53,0-9.99,4.452-9.99,9.99c0,5.911,5.065,10.526,10.99,9.938c5.118-0.508,8.99-4.792,8.99-9.938 C471.99,280.47,467.538,276.01,462,276.01z"/> </g> </g><g> <g> <path d="M256,236.01c-5.53,0-9.99,4.452-9.99,9.99c0,5.143,3.869,9.43,8.99,9.938c5.929,0.589,10.99-4.031,10.99-9.938 C265.99,240.47,261.538,236.01,256,236.01z"/> </g> </g><g> <g> <path d="M256,196c-71.683,0-130,58.318-130,130s58.317,130,130,130s130-58.318,130-130S327.683,196,256,196z M256,436 c-60.654,0-110-49.346-110-110s49.346-110,110-110s110,49.346,110,110S316.654,436,256,436z"/> </g> </g><g> <g> <path d="M299.574,247.267c-4.829-2.682-10.916-0.94-13.597,3.888c-2.682,4.828-0.94,10.916,3.888,13.597 C312.154,277.129,326,300.598,326,326c0,5.523,4.478,10,10,10c5.522,0,10-4.477,10-10 C346,293.337,328.211,263.168,299.574,247.267z"/> </g> </g><g> <g> <path d="M482,176h-10v-30c0-5.523-4.478-10-10-10h-40c-5.522,0-10,4.477-10,10v30h-75.981 c-9.603-5.129-19.661-9.317-30.019-12.503V136h30c16.542,0,30-13.458,30-30V46c0-16.542-13.458-30-30-30H176 c-16.542,0-30,13.458-30,30v60c0,16.542,13.458,30,30,30h30v27.497c-10.358,3.186-20.415,7.374-30.02,12.503 c-23.771,0-53.56,0-75.98,0v-30c0-5.523-4.478-10-10-10H50c-5.522,0-10,4.477-10,10v30H30c-16.542,0-30,13.458-30,30 c0,9.862,0,229.357,0,240c0,16.542,13.458,30,30,30h145.981c24.495,13.079,52.096,20,80.019,20c27.923,0,55.523-6.92,80.019-20 H482c16.542,0,30-13.458,30-30c0-9.862,0-229.357,0-240C512,189.458,498.542,176,482,176z M432,156h20v20h-20V156z M176,116 c-5.514,0-10-4.486-10-10V46c0-5.514,4.486-10,10-10h160c5.514,0,10,4.486,10,10v60c0,5.514-4.486,10-10,10H176z M286,136v22.662 c-9.863-1.756-19.906-2.662-30-2.662s-20.137,0.906-30,2.661V136H286z M60,156h20v20H60V156z M20,206c0-5.514,4.486-10.1,10-10.1 h116.471c-13.54,11.416-25.275,24.994-34.714,40.1H20V206z M20,255.9h81.051C91.17,277.778,86,301.774,86,326 c0,24.227,5.17,48.123,15.051,70H20V255.9z M30,456c-5.514,0-10-4.486-10-10v-30h91.757c9.44,15.107,21.175,28.585,34.714,40H30z M256,476c-82.904,0-150-67.223-150-150c0-82.465,66.789-150,150-150c82.847,0,150,67.172,150,150 C406,409.086,338.602,476,256,476z M492,446c0,5.514-4.486,10-10,10H365.529c13.54-11.416,25.275-24.894,34.714-40H492V446z M492,396h-81.051C420.83,374.122,426,350.226,426,326s-5.17-48.122-15.051-70H492V396z M492,236h-91.757 c-9.439-15.107-21.174-28.585-34.714-40H482c5.514,0,10,4.486,10,10V236z"/> </g> </g><g> <g> <path d="M316,56c-5.522,0-10,4.477-10,10v20c0,5.523,4.478,10,10,10c5.522,0,10-4.477,10-10V66C326,60.477,321.522,56,316,56z"/> </g> </g></symbol><symbol id="call-center-1" viewBox="0 0 496 496"><title>call-center-1</title><path d="m452.59375 335.617188-60.59375-13.984376v-15.753906c6.160156-4.941406 11.351562-11.015625 15.34375-17.878906h8.65625c22.054688 0 40-17.945312 40-40 0-8.929688-3.039062-17.089844-8-23.753906v-32.246094c0-52.9375-43.0625-96-96-96s-96 43.0625-96 96v32.246094c-4.960938 6.664062-8 14.832031-8 23.753906 0 22.054688 17.945312 40 40 40h8.65625c3.984375 6.863281 9.183594 12.9375 15.34375 17.878906v15.753906l-60.59375 13.984376c-3.957031.910156-7.757812 2.335937-11.40625 4.070312v-43.6875c0-13.230469-10.769531-24-24-24h-192c-13.230469 0-24 10.769531-24 24v144c0 13.230469 10.769531 24 24 24h64v16h-16v16h424v-105.816406c0-26.230469-17.847656-48.671875-43.40625-54.566406zm-134.410156 1.015624 19.503906 14.625-19.71875 11.832032-4.242188-25.433594zm25.175781 63.367188h17.289063l6.664062 80h-30.617188zm18.871094-16h-20.46875l-4.59375-13.777344 14.832031-8.894531 14.824219 8.894531zm4.089843-32.742188 19.503907-14.625 5.640625 1.304688-5.074219 25.359375zm49.679688-79.257812h-2.105469c1.328125-5.128906 2.105469-10.464844 2.105469-16v-32c13.230469 0 24 10.769531 24 24s-10.769531 24-24 24zm-64-160c44.113281 0 80 35.886719 80 80v19.390625c-4.910156-2.160156-10.304688-3.390625-16-3.390625v-16h-16v4.464844c-5.550781 4.832031-12.199219 8.269531-19.3125 10.0625.3125-.304688.65625-.566406.96875-.871094l-11.3125-11.3125c-5.96875 5.96875-13.527344 10.136719-21.65625 12.183594.3125-.304688.65625-.566406.96875-.871094l-11.3125-11.3125c-8.679688 8.679688-20.695312 13.65625-32.96875 13.65625h-1.375v-16h-16v16c-5.695312 0-11.089844 1.230469-16 3.390625v-19.390625c0-44.113281 35.886719-80 80-80zm-64 160c-13.230469 0-24-10.769531-24-24s10.769531-24 24-24v32c0 5.535156.777344 10.871094 2.105469 16zm16-16v-32h1.375c7.769531 0 15.441406-1.535156 22.625-4.328125v4.328125h9.375c7.769531 0 15.441406-1.535156 22.625-4.328125v4.328125h9.375c10.746094 0 21.320312-2.886719 30.625-8.089844v40.089844c0 5.617188-1.023438 10.984375-2.800781 16h-45.199219v16h35.679688c-8.792969 9.792969-21.503907 16-35.679688 16-26.472656 0-48-21.527344-48-48zm48 64c8.488281 0 16.585938-1.695312 24-4.710938v8.710938l-24 18-24-18v-8.710938c7.414062 3.015626 15.511719 4.710938 24 4.710938zm-97 31.207031 43.105469-9.941406 7.933593 47.636719 17.082032-10.246094 4.773437 14.320312-7.253906 87.023438h-40.640625v-88h-16v88h-40v-17.472656c9.289062-3.3125 16-12.113282 16-22.527344v-81.726562c4.449219-3.351563 9.542969-5.800782 15-7.066407zm-103 112.792969h56v16h-56zm-128-16c-4.414062 0-8-3.585938-8-8v-144c0-4.414062 3.585938-8 8-8h192c4.414062 0 8 3.585938 8 8v144c0 4.414062-3.585938 8-8 8h-64v-16c0-17.648438-14.351562-32-32-32s-32 14.351562-32 32v16zm80-16c0-8.824219 7.175781-16 16-16s16 7.175781 16 16v48h-32zm376 48h-40v-88h-16v88h-40.640625l-7.246094-87.023438 4.765625-14.320312 16.738282 10.046875 9.429687-47.167969 41.953125 9.679688c18.246094 4.210937 31 20.234375 31 38.96875zm0 0"/><path d="m200 163.527344c0-10.34375-6.59375-19.496094-16.40625-22.765625l-31.59375-10.53125v-10.4375c9.65625-7.3125 16-18.785157 16-31.792969v-16c0-22.054688-17.945312-40-40-40s-40 17.945312-40 40v16c0 13.015625 6.34375 24.488281 16 31.792969v10.4375l-31.59375 10.53125c-9.8125 3.277343-16.40625 12.421875-16.40625 22.765625v44.472656h144zm-96-91.527344c0-13.230469 10.769531-24 24-24s24 10.769531 24 24v16c0 13.230469-10.769531 24-24 24s-24-10.769531-24-24zm80 120h-112v-28.472656c0-3.449219 2.191406-6.496094 5.472656-7.589844l42.527344-14.167969v-14.578125c2.585938.527344 5.265625.808594 8 .808594s5.414062-.28125 8-.808594v14.578125l42.527344 14.167969c3.28125 1.09375 5.472656 4.152344 5.472656 7.589844zm0 0"/><path d="m128 256c70.574219 0 128-57.425781 128-128s-57.425781-128-128-128-128 57.425781-128 128 57.425781 128 128 128zm0-240c61.761719 0 112 50.238281 112 112s-50.238281 112-112 112-112-50.238281-112-112 50.238281-112 112-112zm0 0"/><path d="m296 48h16v16h-16zm0 0"/><path d="m344 48h16v16h-16zm0 0"/><path d="m392 48h16v16h-16zm0 0"/></symbol><symbol id="problem" viewBox="0 -4 480 480"><title>problem</title><path d="m112 271.945312v192c0 4.417969 3.582031 8 8 8h200c4.417969 0 8-3.582031 8-8v-56h-.734375l46.445313-116.117187c1.511718-3.78125 2.285156-7.8125 2.289062-11.882813v-8c-.027344-22.078124-17.917969-39.972656-40-40h-38.144531l-4.800781-24.296874 2.945312-.175782-7.519531-127.527344h7.519531c13.253906 0 24-10.746093 24-24 0-13.253906-10.746094-24-24-24h-120c-4.417969 0-8 3.582032-8 8v192h-16c-22.082031.027344-39.972656 17.921876-40 40zm64 184v-152h-16v152h-32v-184c0-13.253906 10.746094-24 24-24h83.304688l29.222656 157.832032c2.644531 13.980468 14.164062 24.5625 28.320312 26.007812 1.046875.109375 2.097656.164063 3.152344.160156 5.625-.011718 11.144531-1.511718 16-4.351562v28.351562zm53.375-240 2.960938 16h-16.335938v-16zm90.625 32h16c13.253906 0 24 10.746094 24 24v8c.003906 2.039063-.390625 4.0625-1.152344 5.953126l-48 120c-2.648437 6.609374-9.34375 10.675781-16.429687 9.972656-7.085938-.703125-12.855469-6.003906-14.152344-13.003906l-35.632813-192.402344c-1.582031-8.695313 4.191407-17.027344 12.886719-18.605469 8.699219-1.582031 17.027344 4.191406 18.609375 12.886719l28 140.800781 15.679688-3.121094-18.769532-94.480469zm-41.601562-66.816406c-8.652344-5.925781-19.667969-7.222656-29.460938-3.464844-9.792969 3.757813-17.117188 12.085938-19.585938 22.28125h-45.351562v-65.472656c2.5625.949219 5.269531 1.445313 8 1.472656 13.253906 0 24-10.746093 24-24v-32h56.457031zm-94.398438-101.183594h16v32c0 4.417969-3.582031 8-8 8s-8-3.582031-8-8zm0-32h112c4.417969 0 8 3.582032 8 8 0 4.417969-3.582031 8-8 8h-112zm0 168h16v16h-16zm0 0"/><path d="m228.425781 168.792969 31.996094-16 7.15625 14.3125-32 15.996093zm0 0"/><path d="m376.296875 36.097656c1.742187-10.515625 10.175781-18.644531 20.75-20 6.851563-.875 13.746094 1.269532 18.890625 5.878906 5.726562 5.085938 8.6875 12.601563 7.960938 20.226563-.726563 7.625-5.046876 14.445313-11.632813 18.359375-12.460937 7.160156-20.175781 20.398438-20.265625 34.769531v8.613281h16v-8.613281c.132812-8.710937 4.875-16.695312 12.457031-20.984375 15.921875-9.507812 23.226563-28.710937 17.640625-46.394531-5.585937-17.683594-22.59375-29.210937-41.085937-27.84375-18.496094 1.363281-33.625 15.261719-36.554688 33.574219-.3125 2.070312-.464843 4.167968-.457031 6.261718h16c0-1.289062.101562-2.574218.296875-3.847656zm0 0"/><path d="m392 119.945312h16v16h-16zm0 0"/><path d="m21.71875 139.683594c3.671875-3.085938 8.535156-4.359375 13.25-3.472656 6.476562 1.261718 11.539062 6.324218 12.800781 12.800781 1.300781 6.796875-1.929687 13.664062-8 16.992187-9.699219 5.015625-15.78125 15.027344-15.769531 25.941406l16-.695312c.222656-4.835938 3.078125-9.160156 7.441406-11.265625 13.671875-7.53125 19.914063-23.824219 14.773438-38.5625s-20.164063-23.621094-35.554688-21.015625c-15.386718 2.605469-26.65624975 15.929688-26.660156 31.539062h16c0-4.730468 2.09375-9.222656 5.71875-12.261718zm0 0"/><path d="m24 207.945312h16v16h-16zm0 0"/><path d="m416 239.945312h16c-.003906-4.765624 2.117188-9.285156 5.785156-12.328124 3.667969-3.042969 8.5-4.289063 13.183594-3.40625 6.476562 1.261718 11.539062 6.324218 12.800781 12.800781 1.300781 6.796875-1.929687 13.664062-8 16.992187-9.699219 5.015625-15.78125 15.027344-15.769531 25.941406l16-.695312c.222656-4.835938 3.078125-9.160156 7.441406-11.265625 13.671875-7.53125 19.914063-23.824219 14.773438-38.5625s-20.164063-23.621094-35.554688-21.015625c-15.386718 2.605469-26.65625 15.929688-26.660156 31.539062zm0 0"/><path d="m440 295.945312h16v16h-16zm0 0"/><path d="m104 31.945312c3.464844-.003906 6.542969 2.222657 7.617188 5.515626 1.078124 3.292968-.089844 6.90625-2.890626 8.949218-7.761718 5.3125-12.496093 14.03125-12.726562 23.433594v2.101562h16v-2.101562c.296875-4.289062 2.585938-8.1875 6.183594-10.539062 9.132812-6.6875 12.347656-18.847657 7.714844-29.179688-4.632813-10.328125-15.851563-16.015625-26.917969-13.648438-11.070313 2.367188-18.980469 12.148438-18.980469 23.46875h16c0-4.417968 3.582031-8 8-8zm0 0"/><path d="m96 87.449219h16v16h-16zm0 0"/></symbol><symbol id="inbox" viewBox="0 0 512 512"><title>inbox</title><g> <g> <path d="M312.461,332.734H199.539c-8.511,0-15.434,6.923-15.434,15.434v34.634c0,8.511,6.923,15.435,15.434,15.435h112.923 c8.511,0,15.435-6.923,15.435-15.435v-34.634C327.895,339.658,320.972,332.734,312.461,332.734z M308.051,378.393H203.948v-25.814 h104.103V378.393z"/> </g> </g><g> <g> <path d="M506.976,246.958l0.159-0.08L432.73,99.774c-6.015-11.89-18.025-19.275-31.346-19.275h-14.141V66.824 c0-5.48-4.442-9.922-9.922-9.922H134.68c-5.48,0-9.922,4.442-9.922,9.922v13.675h-14.141c-13.321,0-25.331,7.385-31.346,19.275 L4.865,246.878l0.159,0.08C1.837,252.207,0,258.363,0,264.939v155.409c0,19.162,15.59,34.751,34.752,34.751h442.497 c19.162,0,34.751-15.59,34.751-34.751V264.939C512,258.363,510.163,252.207,506.976,246.958z M387.242,102.548h14.141 c4.959,0,9.43,2.751,11.671,7.179l60.93,120.462h-41.431v-37.066c0-5.48-4.442-9.922-9.922-9.922h-12.275v-53.227 c0-5.48-4.442-9.922-9.922-9.922h-13.192V102.548z M412.71,203.044v27.144h-52.359c-8.984,0-17.174,5.293-20.865,13.482 l-14.296,31.71c-0.136,0.299-0.435,0.493-0.764,0.493H187.575c-0.329,0-0.628-0.194-0.764-0.494l-14.295-31.708 c-3.692-8.19-11.882-13.483-20.866-13.483H99.291v-27.144H412.71z M144.602,76.746h222.796v43.305H144.602V76.746z M390.512,139.895v43.305H121.488v-43.305H390.512z M98.946,109.727c2.24-4.429,6.712-7.179,11.671-7.179h14.141v17.503h-13.192 c-5.48,0-9.922,4.442-9.922,9.922v53.227H89.369c-5.48,0-9.922,4.442-9.922,9.922v37.066H38.016L98.946,109.727z M477.249,433.049 H34.752c-7.004,0-12.703-5.699-12.703-12.701V264.939c0-7.003,5.698-12.701,12.703-12.701H151.65c0.328,0,0.629,0.194,0.765,0.495 l14.295,31.708c3.692,8.19,11.881,13.481,20.865,13.481h136.85c8.984,0,17.174-5.292,20.865-13.48l14.296-31.709v-0.001 c0.136-0.3,0.435-0.494,0.764-0.494h116.898c7.004,0,12.701,5.699,12.701,12.701v155.409h0.001 C489.951,427.352,484.253,433.049,477.249,433.049z"/> </g> </g></symbol><symbol id="credit-card" viewBox="0 0 512.16 512.16"><title>credit-card</title><g transform="translate(1 1)"> <g> <g> <path d="M272.067,336.147H408.6c5.12,0,8.533-3.413,8.533-8.533v-76.8c0-5.12-3.413-8.533-8.533-8.533H272.067 c-5.12,0-8.533,3.413-8.533,8.533v76.8C263.533,332.733,266.947,336.147,272.067,336.147z M280.6,259.347h119.467v59.733H280.6 V259.347z"/> <path d="M41.667,225.213h68.267c5.12,0,8.533-3.413,8.533-8.533s-3.413-8.533-8.533-8.533H41.667 c-5.12,0-8.533,3.413-8.533,8.533S36.547,225.213,41.667,225.213z"/> <path d="M144.067,225.213h68.267c5.12,0,8.533-3.413,8.533-8.533s-3.413-8.533-8.533-8.533h-68.267 c-5.12,0-8.533,3.413-8.533,8.533S138.947,225.213,144.067,225.213z"/> <path d="M41.667,259.347H152.6c5.12,0,8.533-3.413,8.533-8.533s-3.413-8.533-8.533-8.533H41.667c-5.12,0-8.533,3.413-8.533,8.533 S36.547,259.347,41.667,259.347z"/> <path d="M212.333,242.28h-25.6c-5.12,0-8.533,3.413-8.533,8.533s3.413,8.533,8.533,8.533h25.6c5.12,0,8.533-3.413,8.533-8.533 S217.453,242.28,212.333,242.28z"/> <path d="M503.32,136.467c-5.973-7.68-13.653-11.947-23.04-12.8l-20.48-2.482V97.213V80.147c0-18.773-15.36-34.133-34.133-34.133 H33.133C14.36,46.013-1,61.373-1,80.147v17.067v68.267v187.733c0,15.413,10.357,28.518,24.453,32.718 c-0.43,17.262,12.631,32.248,30.161,33.842l394.24,44.373c0.853,0,2.56,0,3.413,0c17.067,0,32.427-12.8,34.133-29.013 l25.6-273.92C511.853,152.68,509.293,143.293,503.32,136.467z M16.067,105.747h426.667v22.187v29.013H16.067V105.747z M33.133,63.08h392.533c9.387,0,17.067,7.68,17.067,17.067v8.533H16.067v-8.533C16.067,70.76,23.747,63.08,33.133,63.08z M16.067,353.213v-179.2h426.667v179.2c0,9.387-7.68,17.067-17.067,17.067H33.987h-0.853 C23.747,370.28,16.067,362.6,16.067,353.213z M493.933,157.8l-25.6,273.92c-0.853,9.387-9.387,16.213-18.773,15.36 L56.173,402.707c-8.533-0.853-14.507-7.68-15.36-15.36h384.853c18.773,0,34.133-15.36,34.133-34.133V165.48v-28.16l19.627,1.707 c4.267,0,8.533,2.56,11.093,5.973C493.08,148.413,494.787,153.533,493.933,157.8z"/> </g> </g> </g></symbol><symbol id="open-book" viewBox="0 0 512.004 512.004"><title>open-book</title><path d="M291.057,242.811c1.51,2.953,4.514,4.659,7.62,4.659c1.297,0,2.628-0.299,3.866-0.93 c0.503-0.256,50.731-25.771,75.503-33.596c4.489-1.425,6.98-6.221,5.555-10.709c-1.417-4.489-6.178-6.989-10.709-5.572 c-26.095,8.252-75.981,33.596-78.097,34.671C290.596,233.467,288.924,238.605,291.057,242.811z"/><path d="M298.677,145.071c1.297,0,2.628-0.299,3.866-0.93c0.503-0.256,50.731-25.771,75.503-33.596 c4.489-1.425,6.98-6.221,5.555-10.709c-1.417-4.489-6.178-6.989-10.709-5.572c-26.095,8.252-75.981,33.596-78.097,34.671 c-4.198,2.133-5.871,7.27-3.738,11.477C292.567,143.364,295.571,145.071,298.677,145.071z"/><path d="M503.469,128.004c-4.719,0-8.533,3.823-8.533,8.533v332.8c0,14.114-11.486,25.6-25.6,25.6h-204.8v-19.635 c12.442-4.352,44.851-14.498,76.8-14.498c74.334,0,124.809,16.461,125.312,16.631c2.568,0.853,5.436,0.427,7.68-1.178 c2.227-1.604,3.541-4.181,3.541-6.921V93.871c0-4.002-2.773-7.467-6.682-8.329c0,0-6.69-1.493-18.125-3.593 c-4.617-0.853-9.079,2.219-9.933,6.844c-0.853,4.642,2.21,9.088,6.844,9.941c4.361,0.802,8.013,1.51,10.829,2.074v357.188 c-19.337-5.069-62.276-14.259-119.467-14.259c-37.18,0-73.702,12.211-85.001,16.35c-10.044-4.437-40.405-16.35-77.133-16.35 c-58.778,0-107.196,9.694-128,14.618V100.475c17.041-4.19,67.371-15.138,128-15.138c31.113,0,57.796,9.685,68.267,14.063v335.804 c0,3.072,1.655,5.914,4.326,7.424c2.671,1.519,5.965,1.476,8.602-0.111c0.845-0.503,85.393-51.004,160.435-76.015 c3.49-1.169,5.837-4.42,5.837-8.098V8.537c0-2.799-1.374-5.419-3.678-7.014c-2.287-1.596-5.222-1.963-7.859-0.981 C346.856,26.15,277.771,69.141,277.079,69.568c-3.994,2.5-5.214,7.765-2.714,11.759c2.492,3.994,7.757,5.214,11.759,2.714 c0.631-0.401,60.732-37.794,123.477-63.027v331.281c-58.249,20.241-119.066,53.291-145.067,68.087V93.871 c0-3.234-1.826-6.187-4.719-7.637c-1.468-0.725-36.437-17.963-80.614-17.963c-77.107,0-136.388,16.683-138.88,17.399 c-3.661,1.041-6.187,4.395-6.187,8.201v375.467c0,2.671,1.263,5.197,3.388,6.81c1.502,1.135,3.311,1.724,5.146,1.724 c0.785,0,1.57-0.111,2.338-0.333c0.589-0.162,59.597-16.734,134.195-16.734c31.198,0,57.856,9.711,68.267,14.071v20.062h-204.8 c-14.114,0-25.6-11.486-25.6-25.6v-332.8c0-4.71-3.823-8.533-8.533-8.533s-8.533,3.823-8.533,8.533v332.8 c0,23.526,19.14,42.667,42.667,42.667h426.667c23.526,0,42.667-19.14,42.667-42.667v-332.8 C512.002,131.827,508.188,128.004,503.469,128.004z"/><path d="M291.057,191.611c1.51,2.953,4.514,4.659,7.62,4.659c1.297,0,2.628-0.299,3.866-0.93 c0.503-0.256,50.731-25.771,75.503-33.596c4.489-1.425,6.98-6.221,5.555-10.709c-1.417-4.489-6.178-6.989-10.709-5.572 c-26.095,8.252-75.981,33.596-78.097,34.671C290.596,182.267,288.924,187.405,291.057,191.611z"/><path d="M291.057,294.011c1.51,2.953,4.514,4.659,7.62,4.659c1.297,0,2.628-0.299,3.866-0.93 c0.503-0.256,50.731-25.771,75.503-33.596c4.489-1.425,6.98-6.221,5.555-10.709c-1.417-4.489-6.178-6.989-10.709-5.572 c-26.095,8.252-75.981,33.596-78.097,34.671C290.596,284.667,288.924,289.805,291.057,294.011z"/><path d="M206.748,158.366c-52.693-12.365-112.572,3.388-115.089,4.062c-4.548,1.22-7.253,5.896-6.033,10.453 c1.024,3.814,4.471,6.323,8.235,6.323c0.734,0,1.476-0.094,2.219-0.29c0.572-0.162,58.223-15.326,106.778-3.934 c4.565,1.067,9.182-1.775,10.257-6.366C214.189,164.032,211.339,159.441,206.748,158.366z"/><path d="M206.748,209.566c-52.693-12.356-112.572,3.388-115.089,4.062c-4.548,1.22-7.253,5.897-6.033,10.453 c1.024,3.814,4.471,6.323,8.235,6.323c0.734,0,1.476-0.094,2.219-0.29c0.572-0.162,58.223-15.326,106.778-3.934 c4.565,1.067,9.182-1.775,10.257-6.366C214.189,215.232,211.339,210.641,206.748,209.566z"/><path d="M291.057,345.211c1.51,2.953,4.514,4.659,7.62,4.659c1.297,0,2.628-0.299,3.866-0.93 c0.503-0.256,50.731-25.771,75.503-33.596c4.489-1.425,6.98-6.221,5.555-10.709c-1.417-4.488-6.178-6.989-10.709-5.572 c-26.095,8.252-75.981,33.596-78.097,34.671C290.596,335.867,288.924,341.005,291.057,345.211z"/><path d="M206.748,260.766c-52.693-12.356-112.572,3.379-115.089,4.062c-4.548,1.22-7.253,5.897-6.033,10.453 c1.024,3.814,4.471,6.332,8.235,6.332c0.734,0,1.476-0.102,2.219-0.299c0.572-0.162,58.223-15.326,106.778-3.934 c4.565,1.067,9.182-1.775,10.257-6.366C214.189,266.432,211.339,261.841,206.748,260.766z"/><path d="M206.748,363.166c-52.693-12.365-112.572,3.388-115.089,4.062c-4.548,1.22-7.253,5.897-6.033,10.453 c1.024,3.814,4.471,6.332,8.235,6.332c0.734,0,1.476-0.102,2.219-0.299c0.572-0.162,58.223-15.326,106.778-3.934 c4.565,1.058,9.182-1.775,10.257-6.366C214.189,368.832,211.339,364.241,206.748,363.166z"/><path d="M206.748,311.966c-52.693-12.365-112.572,3.379-115.089,4.062c-4.548,1.22-7.253,5.897-6.033,10.453 c1.024,3.814,4.471,6.332,8.235,6.332c0.734,0,1.476-0.102,2.219-0.299c0.572-0.162,58.223-15.326,106.778-3.934 c4.565,1.067,9.182-1.775,10.257-6.366C214.189,317.632,211.339,313.041,206.748,311.966z"/></symbol><symbol id="healthcare-and-medical" viewBox="0 0 64 64"><title>healthcare-and-medical</title><path d="m18 55a3 3 0 0 0 3 3h8a3 3 0 0 0 0-6h-8a3 3 0 0 0 -3 3zm12 0a1 1 0 0 1 -1 1h-8a1 1 0 0 1 0-2h8a1 1 0 0 1 1 1z"/><circle cx="13" cy="12" r="1"/><circle cx="17" cy="12" r="1"/><circle cx="21" cy="12" r="1"/><path d="m8 37.19a1 1 0 0 0 1-1v-25.19a3 3 0 0 1 3-3h26a3 3 0 0 1 2 .75 1 1 0 1 0 1.32-1.5 5 5 0 0 0 -3.32-1.25h-26a5 5 0 0 0 -5 5v25.19a1 1 0 0 0 1 1z"/><path d="m42 52.54a1 1 0 0 0 -1 1v3.46a3 3 0 0 1 -3 3h-26a3 3 0 0 1 -2.94-2.38 1 1 0 1 0 -1.95.38 5 5 0 0 0 4.89 4h26a5 5 0 0 0 5-5v-3.46a1 1 0 0 0 -1-1z"/><circle cx="43" cy="26" r="1"/><path d="m61.64 47.72-7.76-6.41-1.33-4a1 1 0 0 0 -.24-.39l-7.07-7.07a3 3 0 0 0 -4.24 0 3.09 3.09 0 0 0 -.64.93 3 3 0 0 0 -4.48 2.44 2.93 2.93 0 0 0 -2 .87 3.15 3.15 0 0 0 -.59.83l-2.19-2.21a3 3 0 1 0 -4.24 4.29l6 6h-1.86a3 3 0 0 0 0 6h7.84l.74.75a1.06 1.06 0 0 0 .39.24l4 1.32 8.58 10.4a1 1 0 0 0 .77.36 1 1 0 0 0 .64-.23 1 1 0 0 0 .13-1.41l-8.79-10.68a.94.94 0 0 0 -.45-.31l-4-1.34-.85-.88a1 1 0 0 0 -.71-.29h-8.29a1 1 0 0 1 0-2h4.25a1 1 0 0 0 .92-.62 1 1 0 0 0 -.17-1.09l-7.69-7.68a1 1 0 0 1 0-1.42 1 1 0 0 1 1.41 0l4.25 4.24 2.82 2.82a1 1 0 0 0 .71.3 1 1 0 0 0 .71-1.71l-2.87-2.77a1 1 0 0 1 -.29-.71 1 1 0 0 1 .29-.7 1 1 0 0 1 1.41 0l2.82 2.82a1 1 0 0 0 .71.3 1 1 0 0 0 .72-1.71l-2.83-2.83a1 1 0 0 1 1.41-1.41l1.42 1.36 1.41 1.42a1 1 0 0 0 1.42 0 1 1 0 0 0 0-1.42l-1.42-1.41a1 1 0 0 1 0-1.42 1 1 0 0 1 1.42 0l6.9 6.91 1.34 4a1.07 1.07 0 0 0 .31.45l8 6.59a1 1 0 0 0 1.41-.13 1 1 0 0 0 -.15-1.39z"/><path d="m28 30v-4a1 1 0 0 0 -1-1h-2v-2a1 1 0 0 0 -1-1h-4a1 1 0 0 0 -1 1v2h-2a1 1 0 0 0 -1 1v4a1 1 0 0 0 1 1h2v2a1 1 0 0 0 1 1h4a1 1 0 0 0 1-1v-2h2a1 1 0 0 0 1-1zm-2-1h-2a1 1 0 0 0 -1 1v2h-2v-2a1 1 0 0 0 -1-1h-2v-2h2a1 1 0 0 0 1-1v-2h2v2a1 1 0 0 0 1 1h2z"/><path d="m31 30a1 1 0 0 0 1-1v-8a3 3 0 0 0 -3-3h-14a3 3 0 0 0 -3 3v14a3 3 0 0 0 3 3h8.32a1 1 0 0 0 0-2h-8.32a1 1 0 0 1 -1-1v-14a1 1 0 0 1 1-1h14a1 1 0 0 1 1 1v8a1 1 0 0 0 1 1z"/><path d="m34 14v5a3 3 0 0 0 2 2.83v4.17a1 1 0 0 0 1 1 1 1 0 0 0 .72-.3l4.56-4.7h6.72a3 3 0 0 0 3-3v-5a3 3 0 0 0 -3-3h-12a3 3 0 0 0 -3 3zm16 0v5a1 1 0 0 1 -1 1h-7.14a1 1 0 0 0 -.72.3l-3.14 3.24v-2.54a1 1 0 0 0 -1-1 1 1 0 0 1 -1-1v-5a1 1 0 0 1 1-1h12a1 1 0 0 1 1 1z"/><path d="m39 18h4a1 1 0 0 0 0-2h-4a1 1 0 0 0 0 2z"/><circle cx="47" cy="17" r="1"/><path d="m14 46.92a1 1 0 0 0 -.49-.85l-5-2.93a1 1 0 0 0 -1.51.86v6a1 1 0 0 0 .51.87 1 1 0 0 0 .49.13 1 1 0 0 0 .52-.15l5-3.07a1 1 0 0 0 .48-.86zm-5 1.29v-2.46l2.06 1.25z"/><path d="m18 47a8 8 0 1 0 -8 8 8 8 0 0 0 8-8zm-14 0a6 6 0 1 1 6 6 6 6 0 0 1 -6-6z"/></symbol></svg>