<svg height="512pt" viewBox="-71 0 512 512.00101" width="512pt" xmlns="http://www.w3.org/2000/svg"><path d="m228.378906 275.632812c-2.972656-2.972656-7.792968-2.972656-10.765625 0-17.710937 17.714844-46.535156 17.714844-64.25 0-2.972656-2.972656-7.792969-2.972656-10.765625 0-2.972656 2.972657-2.972656 7.792969 0 10.765626 11.828125 11.824218 27.359375 17.738281 42.890625 17.738281 15.535157 0 31.066407-5.910157 42.890625-17.738281 2.972656-2.972657 2.972656-7.792969 0-10.765626zm0 0"/><path d="m140.542969 205.820312c0-4.203124-3.40625-7.613281-7.613281-7.613281-4.203126 0-7.609376 3.410157-7.609376 7.613281v29.65625c0 4.203126 3.40625 7.613282 7.609376 7.613282 4.207031 0 7.613281-3.410156 7.613281-7.613282zm0 0"/><path d="m238.058594 243.089844c4.203125 0 7.613281-3.410156 7.613281-7.613282v-29.65625c0-4.203124-3.410156-7.613281-7.613281-7.613281s-7.613282 3.410157-7.613282 7.613281v29.65625c0 4.203126 3.410157 7.613282 7.613282 7.613282zm0 0"/><path d="m342.378906 158.273438v-1.390626c0-86.507812-70.378906-156.882812-156.882812-156.882812-86.507813 0-156.882813 70.375-156.882813 156.882812v1.390626c-16.332031 3.507812-28.613281 18.050781-28.613281 35.414062v69.601562c0 19.976563 16.25 36.226563 36.226562 36.226563 6.074219 0 11.796876-1.511719 16.832032-4.164063-5.976563 24.832032-17.425782 48.546876-28.011719 59.128907-2.644531 2.648437-2.976563 6.824219-.777344 9.855469 1.367188 1.886718 13.503907 16.929687 53.054688 19.96875-12.941407 20.300781-20.09375 44.117187-20.09375 68.9375v51.144531c0 4.203125 3.40625 7.613281 7.609375 7.613281h162.960937c4.203125 0 7.609375-3.410156 7.609375-7.613281s-3.40625-7.613281-7.609375-7.613281h-155.347656v-43.53125c0-32.605469 13.996094-63.253907 38.042969-84.582032 8.117187 34.089844 38.75 59.164063 74.992187 59.164063 4.90625 0 9.832031-.46875 14.640625-1.398438 30.1875-5.796875 53.46875-28.679687 60.363282-57.75 1.6875 1.496094 3.332031 3.035157 4.925781 4.628907 21.351562 21.363281 33.113281 49.753906 33.113281 79.9375v43.535156h-40.28125c-4.203125 0-7.609375 3.40625-7.609375 7.609375 0 4.207031 3.40625 7.613281 7.609375 7.613281h47.894531c4.203125 0 7.613281-3.40625 7.613281-7.613281v-51.144531c0-24.800782-7-48.527344-20.058593-68.9375 39.527343-3.042969 51.65625-18.082032 53.023437-19.96875 2.199219-3.027344 1.867188-7.207032-.777344-9.851563-4.488281-4.488281-9.242187-11.503906-13.746093-20.28125-1.917969-3.738281-6.507813-5.214844-10.246094-3.296875-3.742187 1.917969-5.21875 6.507812-3.300781 10.25 3.535156 6.886719 7.296875 12.929688 11.097656 17.851562-6.503906 4.085938-20.507812 10.082032-47.019531 10.578126-2.085938-2.414063-4.265625-4.765626-6.542969-7.046876-3.359375-3.355468-6.914062-6.527343-10.628906-9.496093 5.503906-4.40625 10.628906-9.25 15.320312-14.476563 43.777344-6.847656 56.417969-28.523437 60.042969-39.582031 17.050781-2.933594 30.070313-17.816406 30.070313-35.691406v-69.605469c-.003907-17.363281-12.285157-31.90625-28.613282-35.414062zm-156.882812-143.046876c78.109375 0 141.65625 63.542969 141.65625 141.65625v1.390626c-4.902344 1.050781-9.4375 3.105468-13.386719 5.925781v-.132813c0-70.730468-57.542969-128.269531-128.269531-128.269531-28.839844 0-56.078125 9.347656-78.777344 27.03125-3.3125 2.585937-3.90625 7.367187-1.324219 10.683594 2.582031 3.316406 7.367188 3.910156 10.683594 1.328125 19.996094-15.582032 44.003906-23.820313 69.417969-23.820313 62.332031 0 113.046875 50.710938 113.046875 113.046875v22.304688c-59.03125-1.378906-95.835938-18.59375-116.542969-33.140625-23.253906-16.339844-31.785156-32.902344-31.855469-33.039063-1.304687-2.648437-4.019531-4.285156-6.980469-4.242187-2.953124.0625-5.605468 1.828125-6.804687 4.527343-11.066406 24.976563-40.101563 41.371094-63.90625 44.367188v-.777344c0-24.253906 7.566406-47.375 21.878906-66.855468 2.492188-3.390626 1.761719-8.152344-1.628906-10.640626-3.386719-2.492187-8.152344-1.761718-10.640625 1.625-16.246094 22.117188-24.832031 48.351563-24.832031 75.871094v.132813c-3.953125-2.820313-8.484375-4.871094-13.390625-5.925781v-1.390626c-.003906-78.113281 63.546875-141.65625 141.65625-141.65625zm-149.269532 269.0625c-11.582031 0-21-9.417968-21-21v-69.601562c0-11.582031 9.417969-21 21-21 11.578126 0 21 9.417969 21 21v69.601562c0 11.582032-9.421874 21-21 21zm52.035157 85.292969c-24.652344-.46875-39.667969-5.832031-47.078125-10.476562 10.691406-13.765625 20.179687-35.277344 25.828125-57.167969 8.363281 20.101562 21.699219 37.636719 38.457031 51.0625-6.289062 5.023438-12.039062 10.578125-17.207031 16.582031zm108.992187 41.894531c-3.867187.742188-7.824218 1.121094-11.765625 1.121094-28.703125 0-53.03125-19.585937-59.925781-46.382812 17.804688 9.453125 38.082031 14.835937 59.585938 14.878906h.308593c1.101563 0 2.195313-.011719 3.289063-.042969h.054687c.066407 0 .136719 0 .207031-.003906 6.976563-.191406 13.992188-.957031 20.839844-2.273437 12.667969-2.4375 24.601563-6.707032 35.554688-12.5-5.863282 22.785156-24.320313 40.628906-48.148438 45.203124zm9.714844-47.652343c-6.007812 1.15625-12.15625 1.832031-18.273438 2.003906h-.058593c-.074219 0-.148438 0-.222657.003906-1.074218.03125-2.152343.035157-3.238281.035157-62.15625-.117188-112.726562-50.824219-112.726562-113.039063v-72.660156c25.277343-2.601563 55.074219-17.722657 71.441406-42.011719 5.601563 7.234375 14.707031 17.082031 28.410156 26.859375 22.558594 16.101563 62.542969 35.164063 126.238281 36.582031v51.230469c0 26.816406-9.464843 51.800781-25.460937 71.429687-9.398437 1.109376-20.484375 1.527344-33.539063.925782-2.609374-8.871094-10.8125-15.375-20.519531-15.375-11.796875 0-21.394531 9.597656-21.394531 21.394531s9.597656 21.394531 21.394531 21.394531c8.511719 0 15.859375-5.011718 19.300781-12.226562 4.460938.214844 8.746094.324218 12.835938.324218 1.886719 0 3.71875-.03125 5.527344-.070312-14.058594 11.425781-30.972656 19.597656-49.714844 23.199219zm18.191406-32.058594c-.003906.050781-.011718.097656-.015625.144531v.011719c-.359375 3.066406-2.964843 5.449219-6.125 5.449219-3.402343 0-6.167969-2.765625-6.167969-6.167969s2.769532-6.167969 6.167969-6.167969c3.402344 0 6.171875 2.765625 6.171875 6.167969 0 .191406-.011718.378906-.03125.5625zm89.691406-22.058594c-4.445312 3.480469-10.839843 7.121094-19.945312 10.023438 5.933594-9.695313 10.605469-20.207031 13.816406-31.296875 4.367188 4.519531 9.890625 7.90625 16.089844 9.683594-1.746094 3.34375-4.761719 7.515624-9.960938 11.589843zm40.914063-46.417969c0 11.582032-9.421875 21-21 21-11.582031 0-21-9.417968-21-21v-69.601562c0-11.582031 9.421875-21 21-21s21 9.417969 21 21zm0 0"/></svg>