<?xml version="1.0" encoding="iso-8859-1"?>
<!-- Generator: Adobe Illustrator 19.0.0, SVG Export Plug-In . SVG Version: 6.00 Build 0)  -->
<svg version="1.1" id="Capa_1" xmlns="http://www.w3.org/2000/svg" xmlns:xlink="http://www.w3.org/1999/xlink" x="0px" y="0px"
	 viewBox="0 0 512 512" style="enable-background:new 0 0 512 512;" xml:space="preserve">
<g>
	<g>
		<path d="M400.282,0H111.718C89.896,0,72.141,17.755,72.141,39.577v432.845c0,21.823,17.755,39.577,39.577,39.577h288.564
			c21.823,0,39.577-17.755,39.577-39.577V39.577C439.859,17.755,422.104,0,400.282,0z M424.83,448.877h-41.581
			c-4.15,0-7.515,3.364-7.515,7.515c0,4.151,3.365,7.515,7.515,7.515h41.581v8.517c0,13.536-11.013,24.548-24.548,24.548H111.718
			c-13.535,0-24.548-11.011-24.548-24.548v-8.517h264.016c4.15,0,7.515-3.364,7.515-7.515c0-4.151-3.365-7.515-7.515-7.515H87.17
			V63.123h337.66V448.877z M424.83,48.094H87.17v-8.517c0-13.536,11.013-24.548,24.548-24.548h288.564
			c13.535,0,24.548,11.011,24.548,24.548V48.094z"/>
	</g>
</g>
<g>
	<g>
		<path d="M272.031,472.924h-32.063c-4.15,0-7.515,3.364-7.515,7.515s3.365,7.515,7.515,7.515h32.063
			c4.15,0,7.515-3.364,7.515-7.515S276.181,472.924,272.031,472.924z"/>
	</g>
</g>
<g>
	<g>
		<path d="M257.002,24.047H256c-4.15,0-7.515,3.364-7.515,7.515s3.365,7.515,7.515,7.515h1.002c4.15,0,7.515-3.364,7.515-7.515
			S261.152,24.047,257.002,24.047z"/>
	</g>
</g>
<g>
	<g>
		<path d="M289.065,24.047h-1.002c-4.15,0-7.515,3.364-7.515,7.515s3.365,7.515,7.515,7.515h1.002c4.15,0,7.515-3.364,7.515-7.515
			S293.215,24.047,289.065,24.047z"/>
	</g>
</g>
<g>
	<g>
		<path d="M224.939,24.047h-1.002c-4.15,0-7.515,3.364-7.515,7.515s3.365,7.515,7.515,7.515h1.002c4.15,0,7.515-3.364,7.515-7.515
			S229.089,24.047,224.939,24.047z"/>
	</g>
</g>
<g>
	<g>
		<path d="M256,176.344c-26.242,0-47.593,21.351-47.593,47.593S229.758,271.53,256,271.53s47.593-21.351,47.593-47.593
			S282.242,176.344,256,176.344z M256,256.501c-17.955,0-32.564-14.608-32.564-32.564s14.609-32.564,32.564-32.564
			s32.564,14.608,32.564,32.564S273.955,256.501,256,256.501z"/>
	</g>
</g>
<g>
	<g>
		<path d="M310.19,283.668c-1.413-1.959-3.681-3.12-6.096-3.12h-96.188c-5.041,0-8.726,5.101-7.129,9.891l48.094,144.282
			c1.004,3.012,3.956,5.138,7.129,5.138c3.174,0,6.125-2.126,7.129-5.138l48.094-144.282
			C311.986,288.148,311.603,285.628,310.19,283.668z M256,408.581l-37.668-113.004h75.335L256,408.581z"/>
	</g>
</g>
<g>
	<g>
		<path d="M256,136.266c-48.342,0-87.671,39.329-87.671,87.671c0,19.151,6.065,37.346,17.539,52.618
			c2.653,3.533,7.945,3.982,11.164,0.955c2.751-2.588,3.119-6.965,0.852-9.982c-9.503-12.649-14.525-27.722-14.525-43.591
			c0-40.055,32.587-72.642,72.642-72.642s72.642,32.587,72.642,72.642c0,15.869-5.023,30.94-14.524,43.587
			c-2.493,3.318-1.825,8.029,1.494,10.522c3.319,2.495,8.03,1.825,10.522-1.494c11.473-15.271,17.538-33.464,17.538-52.615
			C343.671,175.595,304.342,136.266,256,136.266z"/>
	</g>
</g>
<g>
	<g>
		<path d="M256,104.203c-66.022,0-119.734,53.712-119.734,119.734c0,41.289,20.854,79.136,55.785,101.244
			c3.741,2.367,8.841,0.906,10.777-3.064c1.656-3.396,0.449-7.618-2.74-9.637c-30.552-19.336-48.792-52.435-48.792-88.543
			c0-57.734,46.97-104.705,104.705-104.705c57.735,0,104.705,46.971,104.705,104.705c0,35.893-18.075,68.889-48.35,88.262
			c-3.496,2.236-4.517,6.884-2.279,10.379c2.236,3.496,6.884,4.517,10.38,2.279c34.614-22.149,55.279-59.877,55.279-100.921
			C375.734,157.915,322.022,104.203,256,104.203z"/>
	</g>
</g>
<g>
	<g>
		<path d="M256,72.141c-83.701,0-151.796,68.096-151.796,151.797c0,64.511,40.902,122.124,101.779,143.36
			c4.075,1.422,8.62-0.993,9.736-5.156c1.005-3.749-1.123-7.756-4.785-9.034c-54.849-19.134-91.7-71.044-91.7-129.17
			c0-75.414,61.354-136.767,136.767-136.767s136.767,61.353,136.767,136.767c0,57.876-36.642,109.711-91.178,128.986
			c-3.913,1.383-5.964,5.676-4.581,9.589c1.383,3.913,5.674,5.964,9.59,4.581c60.53-21.394,101.198-78.924,101.198-143.157
			C407.796,140.237,339.702,72.141,256,72.141z"/>
	</g>
</g>
<g>
</g>
<g>
</g>
<g>
</g>
<g>
</g>
<g>
</g>
<g>
</g>
<g>
</g>
<g>
</g>
<g>
</g>
<g>
</g>
<g>
</g>
<g>
</g>
<g>
</g>
<g>
</g>
<g>
</g>
</svg>
